<?xml version="1.0" encoding="UTF-8"?>
<svg version="1.1" xmlns="http://www.w3.org/2000/svg" width="1024" height="1024">
<path d="M0 0 C337.92 0 675.84 0 1024 0 C1024 337.92 1024 675.84 1024 1024 C686.08 1024 348.16 1024 0 1024 C0 686.08 0 348.16 0 0 Z " fill="#050509" transform="translate(0,0)"/>
<path d="M0 0 C171.6 0 343.2 0 520 0 C522 5 522 5 521.13232422 7.13378906 C520.6117041 7.83729492 520.09108398 8.54080078 519.5546875 9.265625 C518.978396 10.06427979 518.40210449 10.86293457 517.80834961 11.68579102 C517.17034424 12.53197998 516.53233887 13.37816895 515.875 14.25 C514.90735718 15.58019165 514.90735718 15.58019165 513.92016602 16.93725586 C512.59279309 18.76184308 511.25851489 20.58142615 509.91748047 22.39599609 C507.20402693 26.08095859 504.56854252 29.81849533 501.9375 33.5625 C501.20781006 34.59431396 501.20781006 34.59431396 500.46337891 35.64697266 C496.29647887 41.54539322 492.21829061 47.50250261 488.15185547 53.47045898 C483.00531595 61.01560155 477.78747952 68.51037602 472.55566406 75.99658203 C471.91983398 76.90778809 471.28400391 77.81899414 470.62890625 78.7578125 C470.07275635 79.5533252 469.51660645 80.34883789 468.94360352 81.16845703 C466.99458835 83.82211474 466.99458835 83.82211474 465.98199463 86.29911804 C464.57229501 89.10558505 463.37888056 90.93148999 461 93 C455.85295357 94.27626065 450.79376418 94.04988204 445.5390625 93.87890625 C444.02309965 93.86210481 442.50708768 93.84930087 440.99105835 93.84031677 C437.01458079 93.80606922 433.04109641 93.71777804 429.0657959 93.61798096 C425.00391129 93.52565155 420.94153936 93.48475393 416.87890625 93.43945312 C408.9179022 93.34313767 400.95932413 93.18968979 393 93 C393.89644871 88.76940116 395.86667208 85.95597293 398.3125 82.375 C404.25950739 73.61786824 410.12818326 64.80772511 416 56 C298.52 56 181.04 56 60 56 C60.33 219.35 60.66 382.7 61 551 C76.06972036 540.75259015 91.1120187 530.50363678 106 520 C106.77375977 519.4544043 107.54751953 518.90880859 108.34472656 518.34667969 C111.99009629 515.77573472 115.63419115 513.20299182 119.27734375 510.62890625 C127.65337003 504.71205245 127.65337003 504.71205245 131.0078125 502.40234375 C132.73805251 501.18439049 134.40694866 499.88018372 136.0625 498.5625 C140.10114202 496.41428616 143.50249502 496.26756138 148 497 C150.63108252 498.35705492 152.58006574 500.19022525 154.6875 502.25 C155.89522955 503.35742967 157.10358107 504.46418134 158.3125 505.5703125 C158.9209375 506.14040039 159.529375 506.71048828 160.15625 507.29785156 C163.0858242 510.00243198 166.14122997 512.55375153 169.1875 515.125 C173.61866045 518.91816777 178.02521124 522.73868405 182.375 526.625 C183.26960937 527.42164063 184.16421875 528.21828125 185.0859375 529.0390625 C187 531 187 531 187 533 C184.94516099 534.82652357 183.13314398 535.94879078 180.5625 536.9375 C176.42971658 538.65109312 173.57543113 541.42456887 170.4375 544.5625 C168.35514628 546.64485372 166.50620968 548.463936 164 550 C162.68 550 161.36 550 160 550 C160 550.66 160 551.32 160 552 C159.34 552 158.68 552 158 552 C157.67 552.99 157.34 553.98 157 555 C155.02067067 556.77457112 153.63424991 557.88107814 151 558.375 C148.74464252 558.87040289 148.74464252 558.87040289 147.1953125 561.33203125 C144.91677285 564.10114616 142.94736301 565.5075987 139.875 567.3125 C135.90486609 569.73486475 132.27610688 572.29116377 128.6875 575.25 C120.45930233 582 120.45930233 582 116 582 C115.79761719 582.56460938 115.59523438 583.12921875 115.38671875 583.7109375 C113.47781159 586.86197861 110.7991895 588.58699494 107.8125 590.625 C106.89549316 591.26381104 106.89549316 591.26381104 105.95996094 591.91552734 C103.98053872 593.28786649 101.99125607 594.6448991 100 596 C99.30890137 596.474375 98.61780273 596.94875 97.90576172 597.4375 C95.85870218 598.84065327 93.80598348 600.23496168 91.75 601.625 C91.10651611 602.06279785 90.46303223 602.5005957 89.80004883 602.95166016 C85.23490517 606 85.23490517 606 83 606 C83 606.99 83 607.98 83 609 C82.44675049 609.29205322 81.89350098 609.58410645 81.32348633 609.88500977 C75.79251198 612.87116154 70.72947074 616.19415764 65.6875 619.9375 C64.1103313 621.09245286 62.53216904 622.24604991 60.953125 623.3984375 C60.14166016 623.99108398 59.33019531 624.58373047 58.49414062 625.19433594 C54.3430079 628.1996 50.14138411 631.13169463 45.9375 634.0625 C44.26168669 635.23172489 42.58590522 636.40099541 40.91015625 637.5703125 C40.09305176 638.14040039 39.27594727 638.71048828 38.43408203 639.29785156 C33.86421225 642.49355188 29.31218424 645.71448835 24.75878906 648.93359375 C20.17753095 652.17157493 15.58596048 655.39419032 10.98046875 658.59765625 C8.94529978 659.98218575 8.94529978 659.98218575 7.05078125 661.74609375 C5 663 5 663 0 662 C0 443.54 0 225.08 0 0 Z " fill="#BEE162" transform="translate(271,182)"/>
<path d="M0 0 C1.45755649 0.00056958 1.45755649 0.00056958 2.94455856 0.00115067 C4.61957501 -0.00183591 4.61957501 -0.00183591 6.32843018 -0.00488281 C8.1917161 -0.00051355 8.1917161 -0.00051355 10.09264416 0.00394398 C11.40023534 0.00308955 12.70782652 0.00223513 14.05504167 0.00135481 C17.70129687 -0.00089262 21.34752298 0.0031345 24.99377447 0.00813287 C28.91949229 0.01243365 32.84520834 0.01099122 36.77092785 0.0102306 C43.57808172 0.00970513 50.38522604 0.01285435 57.19237751 0.01846844 C67.03449082 0.0265803 76.87659949 0.02919834 86.71871578 0.03045643 C102.68519367 0.03264745 118.65166647 0.03930887 134.61814159 0.04875904 C150.13213873 0.05793188 165.64613448 0.06501334 181.16013378 0.06926686 C182.11570964 0.06952958 183.0712855 0.0697923 184.05581821 0.07006299 C188.84945037 0.07136798 193.64308253 0.0726317 198.43671471 0.07387489 C238.23246409 0.08424905 278.02820778 0.1018687 317.82395214 0.1241985 C313.14547877 11.89040174 307.37622473 23.25289969 301.57395214 34.4991985 C300.97453808 35.68376637 300.97453808 35.68376637 300.36301464 36.8922649 C298.00093496 41.40817799 295.62938945 44.72554931 291.82395214 48.1241985 C291.49395214 48.4541985 291.16395214 48.7841985 290.82395214 49.1241985 C288.98363224 49.24757024 287.13865802 49.30211157 285.29441112 49.32952076 C284.11326229 49.34946598 282.93211345 49.3694112 281.71517223 49.38996083 C279.78708469 49.41502957 279.78708469 49.41502957 277.82004589 49.44060475 C276.51189419 49.46138584 275.20374248 49.48216694 273.85594982 49.50357777 C270.37239767 49.55886149 266.88878554 49.6082428 263.4051289 49.65642506 C259.85262484 49.70659424 256.30020824 49.76230417 252.74778026 49.81755787 C245.77324668 49.92521641 238.79863416 50.02664416 231.82395214 50.1241985 C233.16199901 51.43396656 233.16199901 51.43396656 234.52707714 52.77019459 C235.70958711 53.93745394 236.89186659 55.10494683 238.07395214 56.272636 C238.66047558 56.84554371 239.24699901 57.41845143 239.85129589 58.00871998 C247.76119837 65.84641127 252.57446795 74.90633765 256.82395214 85.1241985 C257.35182323 86.38876881 257.35182323 86.38876881 257.89035839 87.678886 C258.74187149 89.90920901 259.40704094 92.05172193 259.94895214 94.3741985 C260.11653026 95.05997975 260.28410839 95.745761 260.45676464 96.4523235 C260.98672464 100.30862821 260.82395214 104.23164874 260.82395214 108.1241985 C280.95395214 108.1241985 301.08395214 108.1241985 321.82395214 108.1241985 C320.28162116 112.75119142 318.57892076 117.09207586 316.55832714 121.507011 C316.2424464 122.20253071 315.92656566 122.89805043 315.60111278 123.61464649 C314.93352147 125.08268607 314.26444677 126.55005187 313.59397167 128.01677662 C312.58725609 130.22008137 311.586096 132.42584413 310.58567089 134.632011 C299.9660999 157.98205073 299.9660999 157.98205073 297.82395214 160.1241985 C294.7941741 160.21291122 291.78728192 160.239392 288.75754589 160.22185475 C287.84892299 160.2204398 286.9403001 160.21902485 286.00414318 160.21756703 C283.08987993 160.21195043 280.17569233 160.19939514 277.26145214 160.1866985 C275.29075012 160.18168563 273.3200469 160.17712236 271.34934276 160.17302662 C266.50751655 160.16197561 261.66574719 160.14469988 256.82395214 160.1241985 C256.62491283 161.71433766 256.62491283 161.71433766 256.42185253 163.33660084 C255.66288642 168.14452252 254.08251436 172.25824481 252.26145214 176.7491985 C251.90357616 177.63293141 251.54570019 178.51666432 251.17697948 179.42717701 C248.07837883 186.86965475 244.46753443 193.50903936 239.82395214 200.1241985 C239.12141308 201.14126881 238.41887401 202.15833912 237.69504589 203.20622975 C215.92570843 233.07921228 184.49681152 252.82380048 149.44895214 263.3741985 C148.39917186 263.691469 147.34939159 264.00873951 146.26779979 264.33562428 C129.02299903 269.31617608 111.95199841 271.78145539 94.07395214 272.8741985 C92.1897569 272.99929164 90.30564124 273.12558928 88.42160839 273.25310475 C83.889847 273.55727098 79.35734422 273.84543792 74.82395214 274.1241985 C76.10435375 275.19782643 76.10435375 275.19782643 77.41062206 276.29314381 C83.44091084 281.36333353 89.41857259 286.45041623 95.13645214 291.8741985 C96.31931507 292.98305152 97.50290197 294.0911328 98.68723339 295.19841725 C99.23331249 295.70936939 99.77939159 296.22032154 100.34201854 296.74675709 C104.45041741 300.56546984 108.72497747 304.18920824 112.99582714 307.82341725 C114.18881528 308.84001606 115.38151419 309.85695437 116.57395214 310.8741985 C117.17763622 311.38901783 117.7813203 311.90383717 118.40329784 312.43425709 C122.86434559 316.2569925 127.19828549 320.19766145 131.50144237 324.19621998 C134.61921373 327.07388414 137.82303026 329.78791582 141.13645214 332.4366985 C146.43404202 336.69464592 151.3383237 341.30021832 156.27195019 345.96672779 C160.71565635 350.14814167 165.31184837 354.04332041 170.08176464 357.850761 C173.27436855 360.49762065 176.29836082 363.28986493 179.32395214 366.1241985 C183.21969543 369.77310091 187.15729745 373.28118485 191.32395214 376.6241985 C196.724804 380.96064889 201.7671822 385.62116363 206.82785839 390.3429485 C209.76595069 393.08236021 212.77226259 395.73285449 215.81223339 398.3585735 C218.29007921 400.53330419 220.70974089 402.76758251 223.13645214 404.9991985 C227.60105249 409.07130651 232.19242683 412.92743336 236.89035839 416.725761 C242.00024689 420.90348609 246.98707238 425.22408078 251.98264354 429.53728443 C253.82555843 431.12558286 255.67391188 432.7073564 257.52317089 434.288261 C266.51570269 441.99967142 275.21917869 449.98322844 283.82395214 458.1241985 C283.49395214 459.1141985 283.16395214 460.1041985 282.82395214 461.1241985 C272.60067351 461.26381695 262.37762529 461.37013122 252.15358394 461.43507153 C247.40501537 461.46625529 242.65710369 461.50848787 237.90891308 461.57683522 C233.31822384 461.64249456 228.72816252 461.67800172 224.1370396 461.69346195 C222.39405486 461.70446546 220.65110071 461.72595122 218.90838665 461.75857884 C208.53407905 461.94491299 199.48041413 461.76402422 190.82395214 455.1241985 C190.49395214 454.1341985 190.16395214 453.1441985 189.82395214 452.1241985 C188.18604502 451.07775784 186.51387193 450.08438019 184.82395214 449.1241985 C182.01145214 447.0616985 182.01145214 447.0616985 179.82395214 445.1241985 C179.82395214 444.4641985 179.82395214 443.8041985 179.82395214 443.1241985 C179.22582714 442.8766985 178.62770214 442.6291985 178.01145214 442.3741985 C175.82395214 441.1241985 175.82395214 441.1241985 174.38645214 439.1866985 C172.9312066 436.99361831 172.9312066 436.99361831 170.55832714 435.79216725 C167.51265969 433.9343101 165.12008995 431.80540363 162.51145214 429.3741985 C159.334397 426.43859955 156.15964457 423.51479153 152.88645214 420.6866985 C150.05916102 418.2344562 147.29691885 415.72102165 144.55222362 413.17668873 C139.38503154 408.38940112 134.09606687 403.85463564 128.60520214 399.4366985 C125.5837573 396.92448593 122.69956831 394.30015761 119.82395214 391.6241985 C115.19495595 387.31742698 110.40928254 383.28018414 105.48410839 379.3116985 C101.93964849 376.39701781 98.5489856 373.3298195 95.15598339 370.241386 C93.06571325 368.34368681 90.95409099 366.47686435 88.82395214 364.6241985 C85.89536614 362.07556877 83.01035508 359.48431324 80.13645214 356.8741985 C76.30712991 353.41432083 72.4037936 350.06306269 68.44895214 346.7491985 C62.99866079 342.17809009 57.73767518 337.43305928 52.51535839 332.60466725 C47.99828994 328.44162158 43.36146632 324.42798416 38.67942089 320.4523235 C32.21284429 314.95260133 25.85305804 309.3808494 19.66916698 303.56389576 C16.38018267 300.49085486 12.99302044 297.60418876 9.49118847 294.77703053 C2.83752491 289.38084834 -1.39415205 284.76837742 -3.17604786 276.1241985 C-3.27036724 274.45542464 -3.31401633 272.78341275 -3.32131153 271.11199147 C-3.32769139 270.11771137 -3.33407124 269.12343128 -3.34064442 268.09902149 C-3.34175724 267.03225178 -3.34287007 265.96548207 -3.34401661 264.866386 C-3.34734501 263.76698689 -3.35067341 262.66758778 -3.35410267 261.53487355 C-3.3591619 259.21325304 -3.36151131 256.89162528 -3.3613506 254.56999928 C-3.36354373 251.00591419 -3.38172839 247.44213534 -3.40065724 243.87810475 C-3.40358995 241.62419956 -3.40557556 239.3702929 -3.40651661 237.116386 C-3.41729489 235.51015873 -3.41729489 235.51015873 -3.4282909 233.87148243 C-3.42521427 232.88350666 -3.42213764 231.89553089 -3.41896778 230.87761647 C-3.4203928 230.00587788 -3.42181782 229.13413929 -3.42328602 228.23598439 C-3.17604786 226.1241985 -3.17604786 226.1241985 -1.17604786 224.1241985 C1.63204235 223.85245472 1.63204235 223.85245472 5.26706737 223.82121998 C5.92934337 223.81278065 6.59161937 223.80434132 7.27396435 223.79564625 C9.47683204 223.76974849 11.67956423 223.75768045 13.88254589 223.74529225 C15.42601851 223.7290985 16.96948106 223.71191656 18.51293224 223.69379383 C22.59747325 223.64797597 26.68202891 223.61329408 30.76670116 223.58159596 C108.68499802 223.93435258 108.68499802 223.93435258 175.44895214 187.8741985 C182.00303235 181.0504513 187.47268415 173.71729856 191.96384472 165.41277272 C192.50052273 164.42235981 193.03720073 163.43194691 193.59014171 162.41152149 C193.99729915 161.65670491 194.40445659 160.90188832 194.82395214 160.1241985 C193.32063351 160.12696388 193.32063351 160.12696388 191.78694481 160.12978512 C167.42625879 160.17413983 143.06557799 160.2070289 118.70486015 160.22782284 C106.92431178 160.23814532 95.14379005 160.2522242 83.36325878 160.2750774 C73.09805364 160.29498155 62.83286778 160.30790786 52.56764388 160.31237549 C47.12985406 160.31498792 41.69211943 160.32114838 36.25434726 160.33565861 C31.14006309 160.34919555 26.02585705 160.35342904 20.91155666 160.35041386 C19.03095809 160.35096577 17.15035702 160.35496629 15.2697739 160.36260945 C12.70897539 160.3725099 10.1484747 160.3701854 7.58766979 160.36470753 C6.8376734 160.37053321 6.087677 160.3763589 5.31495345 160.38236111 C1.59469529 160.36074164 0.00448298 160.24455239 -3.17604786 158.1241985 C-3.55026966 156.07488209 -3.55026966 156.07488209 -3.54836231 153.522636 C-3.5545911 152.56824635 -3.5608199 151.6138567 -3.56723744 150.63054615 C-3.55342282 149.08052906 -3.55342282 149.08052906 -3.53932911 147.4991985 C-3.53982762 146.44136158 -3.54032612 145.38352467 -3.54083973 144.29363209 C-3.53849631 142.05419244 -3.52875215 139.8147503 -3.5122295 137.57537037 C-3.48864451 134.13828303 -3.49166571 130.70197112 -3.49831349 127.2648235 C-3.49273681 125.09294385 -3.485627 122.92106748 -3.47682911 120.7491985 C-3.47774052 119.71585377 -3.47865193 118.68250904 -3.47959095 117.61785084 C-3.47005894 116.66346119 -3.46052693 115.70907154 -3.45070606 114.725761 C-3.44609867 113.88351979 -3.44149128 113.04127857 -3.43674427 112.1735149 C-3.17604786 110.1241985 -3.17604786 110.1241985 -1.17604786 108.1241985 C1.4822886 107.93094328 4.03602731 107.86373276 6.69519848 107.88368946 C7.51770135 107.88198061 8.34020422 107.88027176 9.18763143 107.87851113 C11.95923295 107.8752021 14.73059537 107.88624306 17.50217479 107.89714772 C19.48274013 107.89771152 21.46330587 107.89739586 23.44387096 107.89626271 C28.83411282 107.89568701 34.22426633 107.90747633 39.61448759 107.92141062 C45.24260334 107.93388192 50.87072094 107.93508563 56.49884838 107.93746144 C67.16254914 107.94368682 77.82620907 107.96011192 88.48989183 107.98016042 C100.62754922 108.00248655 112.76520852 108.01350456 124.90288132 108.02355129 C149.87659426 108.04447725 174.85027092 108.07967373 199.82395214 108.1241985 C199.51898041 106.35999228 199.2096239 104.59654367 198.89841503 102.83342701 C198.64071079 101.36027783 198.64071079 101.36027783 198.37780041 99.85736805 C195.62165756 86.2561596 185.03695298 75.98224438 174.15598339 68.22185475 C150.23130062 53.1602432 120.79300427 51.84581663 93.34028286 51.78867298 C89.44858365 51.78029636 85.5571094 51.75971966 81.66547436 51.73613697 C72.72388086 51.68349526 63.78223713 51.64954341 54.8405537 51.61637837 C45.9430171 51.58323378 37.04560158 51.54253874 28.14816707 51.48825794 C24.30913328 51.46815724 20.47018704 51.45986972 16.63111156 51.45195729 C14.29711367 51.43899625 11.96311879 51.42547764 9.62912792 51.41130787 C8.55806804 51.41228977 7.48700817 51.41327168 6.38349193 51.41428334 C4.92474651 51.40187359 4.92474651 51.40187359 3.43653148 51.38921314 C2.58898359 51.38628002 1.7414357 51.3833469 0.86820453 51.3803249 C-1.17604786 51.1241985 -1.17604786 51.1241985 -3.17604786 49.1241985 C-3.42328602 47.06815296 -3.42328602 47.06815296 -3.41896778 44.50676686 C-3.42204441 43.54914952 -3.42512104 42.59153218 -3.4282909 41.60489613 C-3.42110539 40.56841435 -3.41391987 39.53193257 -3.40651661 38.46404225 C-3.40605839 37.40383366 -3.40560017 36.34362507 -3.40512806 35.25128895 C-3.40210357 33.00766084 -3.39421142 30.76403487 -3.38185841 28.52043873 C-3.3636052 25.0725284 -3.36134865 21.62488645 -3.36159474 18.17693287 C-3.35667962 16.00180032 -3.35085133 13.82666961 -3.34401661 11.65154225 C-3.34290379 10.61303623 -3.34179096 9.57453022 -3.34064442 8.50455433 C-3.33426457 7.55008915 -3.32788471 6.59562397 -3.32131153 5.61223561 C-3.31749974 4.76777378 -3.31368794 3.92331196 -3.30976063 3.05326039 C-3.1174153 0.27831183 -2.77770987 0.15853851 0 0 Z " fill="#9CD25E" transform="translate(389.1760478615761,304.8758015036583)"/>
<path d="M0 0 C171.6 0 343.2 0 520 0 C520.66 1.65 521.32 3.3 522 5 C520.8828125 7.23828125 520.8828125 7.23828125 519.125 9.3125 C518.55007813 10.00988281 517.97515625 10.70726562 517.3828125 11.42578125 C516.92648437 11.94527344 516.47015625 12.46476563 516 13 C516 10 516 10 517 7 C468.50174269 6.9657785 420.00348452 6.9339353 371.50521851 6.91531372 C370.78793821 6.91503761 370.07065792 6.91476149 369.33164185 6.91447701 C353.74487975 6.90849182 338.15811751 6.90295136 322.57135508 6.89786934 C314.92810388 6.89537457 307.28485271 6.89278148 299.64160156 6.89013672 C298.88098815 6.8898752 298.12037474 6.88961368 297.33671243 6.88934424 C272.6632661 6.88081477 247.9898289 6.86578711 223.3163881 6.84740556 C197.97064431 6.82855735 172.62490557 6.81623306 147.27915488 6.81217002 C143.7029019 6.81159367 140.12664893 6.8109424 136.55039597 6.81024551 C135.49456284 6.81004324 135.49456284 6.81004324 134.41739976 6.80983689 C123.06638456 6.80746936 111.71538495 6.79818223 100.36437613 6.78633593 C88.96510618 6.77458591 77.56585648 6.77022032 66.16657902 6.77299725 C59.98519989 6.77428417 53.80386671 6.77224721 47.62249565 6.76158905 C41.9724085 6.75191753 36.32239858 6.75132502 30.67230801 6.75820221 C28.61979455 6.75905325 26.56727643 6.75646471 24.51477225 6.75023364 C21.74153054 6.74229876 18.96857388 6.74647735 16.1953373 6.75390434 C15.38397949 6.74865032 14.57262169 6.74339629 13.73667729 6.73798305 C9.40281133 6.59783994 9.40281133 6.59783994 6 9 C5.70998435 11.25415906 5.70998435 11.25415906 5.77989197 13.91317749 C5.78143469 14.96542385 5.78297741 16.01767021 5.78456688 17.10180283 C5.79628237 18.27396473 5.80799786 19.44612663 5.82006836 20.65380859 C5.82631125 22.57658449 5.83254441 24.49936044 5.83849573 26.42213726 C5.84683237 28.53995046 5.85997186 30.65768978 5.87426949 32.77547073 C5.9213657 39.90633149 5.93344317 47.03732012 5.95018423 54.1683042 C5.95666619 56.81097724 5.96427721 59.45364556 5.97195148 62.09631538 C6.02917612 83.357487 5.92756653 104.61797098 5.83161139 125.87890053 C5.80567028 131.69689118 5.78136045 137.51488866 5.75691223 143.33288574 C5.71512582 153.23832481 5.67259054 163.14376039 5.62960815 173.04919434 C5.51402996 199.73315703 5.40474296 226.41714565 5.29788759 253.10114455 C5.29199896 254.57148037 5.2861057 256.04181617 5.28020784 257.51215196 C4.94274507 341.64601411 4.69389444 425.78015861 4.44586295 509.91432369 C4.43467638 513.70742227 4.42347229 517.5005208 4.41226794 521.29361933 C4.27274576 568.52907351 4.13515305 615.76453311 4 663 C2.68 662.67 1.36 662.34 0 662 C0 443.54 0 225.08 0 0 Z " fill="#F6F78A" transform="translate(271,182)"/>
<path d="M0 0 C0.71142464 -0.00115384 1.42284927 -0.00230769 2.15583223 -0.0034965 C4.56389175 -0.00616468 6.97188575 -0.00163934 9.37994194 0.00279331 C11.11408436 0.00235765 12.84822672 0.00148284 14.58236873 0.00020415 C19.36651937 -0.00204183 24.15064781 0.00198187 28.93479562 0.00698221 C34.08681951 0.01128505 39.23884206 0.0098404 44.39086723 0.00907993 C53.32336666 0.00855459 62.2558588 0.01170245 71.1883564 0.01731777 C84.10338257 0.02543141 97.0184052 0.02804785 109.93343364 0.02930576 C130.88524008 0.0314965 151.83704264 0.03815716 172.78884697 0.04760838 C193.14626865 0.05678194 213.50368927 0.06386304 233.86111259 0.06811619 C235.74213164 0.06851027 235.74213164 0.06851027 237.66115107 0.06891232 C243.95191972 0.07021732 250.24268838 0.07148104 256.53345704 0.07272422 C308.75384361 0.0830975 360.97422596 0.1007164 413.19460869 0.12304783 C413.19460869 0.45304783 413.19460869 0.78304783 413.19460869 1.12304783 C378.66504272 1.27673998 344.13545355 1.42464334 309.60584402 1.56817991 C302.31297732 1.598507 295.02011142 1.62900523 287.72724724 1.65993214 C267.36221493 1.74626063 246.99717446 1.8301239 226.63210869 1.90820408 C225.54729869 1.91236343 225.54729869 1.91236343 224.44057333 1.91660681 C185.92868397 2.06380979 147.41740373 2.16157097 108.90516567 2.12221003 C105.91087486 2.11917078 102.91658391 2.11646527 99.92229271 2.11383533 C82.73807279 2.09828826 65.55390525 2.07638165 48.3697629 2.02098602 C41.90869415 2.00041635 35.44763172 1.98596625 28.98653746 1.97634369 C24.64642442 1.96939059 20.30646629 1.95389256 15.96640897 1.93108213 C12.79281306 1.91683852 9.61920852 1.91529009 6.44558525 1.91186619 C4.75377569 1.89872757 4.75377569 1.89872757 3.02778816 1.88532352 C1.50527002 1.887276 1.50527002 1.887276 -0.04800606 1.88926792 C-0.92565495 1.88612552 -1.80330383 1.88298311 -2.70754814 1.87974548 C-5.02476672 1.92846569 -5.02476672 1.92846569 -6.80539131 4.12304783 C-7.09540696 6.37720689 -7.09540696 6.37720689 -7.02549934 9.03622532 C-7.02395662 10.08847168 -7.0224139 11.14071804 -7.02082443 12.22485065 C-7.00910894 13.39701256 -6.99739346 14.56917446 -6.98532295 15.77685642 C-6.97908007 17.69963232 -6.9728469 19.62240827 -6.96689558 21.54518509 C-6.95855894 23.66299829 -6.94541945 25.7807376 -6.93112183 27.89851856 C-6.88402561 35.02937932 -6.87194814 42.16036795 -6.85520709 49.29135203 C-6.84872513 51.93402507 -6.8411141 54.57669339 -6.83343983 57.21936321 C-6.77621519 78.48053483 -6.87782479 99.74101881 -6.97377992 121.00194836 C-6.99972103 126.81993901 -7.02403086 132.63793648 -7.04847908 138.45593357 C-7.09026549 148.36137263 -7.13280077 158.26680822 -7.17578316 168.17224216 C-7.29136135 194.85620486 -7.40064835 221.54019348 -7.50750372 248.22419238 C-7.51339235 249.6945282 -7.51928561 251.164864 -7.52518347 252.63519979 C-7.86264624 336.76906194 -8.11149687 420.90320643 -8.35952836 505.03737152 C-8.37071493 508.8304701 -8.38191902 512.62356863 -8.39312337 516.41666716 C-8.53264555 563.65212134 -8.67023826 610.88758094 -8.80539131 658.12304783 C-10.12539131 657.79304783 -11.44539131 657.46304783 -12.80539131 657.12304783 C-12.83802609 629.22722106 -12.85700015 601.33139127 -12.86789131 573.43554783 C-12.86832561 572.35671912 -12.86875992 571.27789041 -12.86920738 570.16636992 C-12.90294967 483.89492189 -12.65363128 397.6255972 -12.31441277 311.35495991 C-12.30536213 309.05312681 -12.29632491 306.75129366 -12.28728914 304.44946051 C-12.13367842 265.34062669 -11.97320464 226.23182341 -11.80539131 187.12304783 C-11.14539131 186.79304783 -10.48539131 186.46304783 -9.80539131 186.12304783 C-9.31039131 94.54804783 -9.31039131 94.54804783 -8.80539131 1.12304783 C-5.86940947 -0.34494309 -3.27970769 -0.00097668 0 0 Z " fill="#EBF77F" transform="translate(283.8053913116455,186.87695217132568)"/>
<path d="M0 0 C1.45755649 0.00056958 1.45755649 0.00056958 2.94455856 0.00115067 C4.61957501 -0.00183591 4.61957501 -0.00183591 6.32843018 -0.00488281 C8.1917161 -0.00051355 8.1917161 -0.00051355 10.09264416 0.00394398 C11.40023534 0.00308955 12.70782652 0.00223513 14.05504167 0.00135481 C17.70129687 -0.00089262 21.34752298 0.0031345 24.99377447 0.00813287 C28.91949229 0.01243365 32.84520834 0.01099122 36.77092785 0.0102306 C43.57808172 0.00970513 50.38522604 0.01285435 57.19237751 0.01846844 C67.03449082 0.0265803 76.87659949 0.02919834 86.71871578 0.03045643 C102.68519367 0.03264745 118.65166647 0.03930887 134.61814159 0.04875904 C150.13213873 0.05793188 165.64613448 0.06501334 181.16013378 0.06926686 C182.11570964 0.06952958 183.0712855 0.0697923 184.05581821 0.07006299 C188.84945037 0.07136798 193.64308253 0.0726317 198.43671471 0.07387489 C238.23246409 0.08424905 278.02820778 0.1018687 317.82395214 0.1241985 C315.94895214 4.9991985 315.94895214 4.9991985 314.82395214 6.1241985 C313.1716526 6.22638368 311.51496913 6.25818917 309.85951942 6.2628637 C308.77767574 6.26833814 307.69583207 6.27381258 306.58120525 6.27945292 C304.77628355 6.28092008 304.77628355 6.28092008 302.93489879 6.28241688 C301.66814314 6.28735486 300.40138748 6.29229283 299.09624529 6.29738045 C295.56402003 6.31101481 292.03180445 6.31839515 288.4995597 6.32480711 C284.69653084 6.3327879 280.89352225 6.3464936 277.09050792 6.35951954 C270.49617371 6.38131536 263.90183749 6.39944844 257.307486 6.41512448 C247.77305034 6.43779491 238.2386371 6.4659416 228.70422042 6.49544375 C213.23689804 6.54315441 197.76956651 6.58640915 182.30222362 6.62688404 C167.27324502 6.66622132 152.24427456 6.70764328 137.21530956 6.75188404 C135.8267507 6.75597045 135.8267507 6.75597045 134.41014015 6.76013941 C129.76634859 6.7738186 125.12255716 6.78753893 120.47876579 6.80127972 C81.92717816 6.91529905 43.37557306 7.0220963 4.82395214 7.1241985 C3.83041069 21.1757133 3.82395214 34.98645104 3.82395214 49.1241985 C40.78395214 49.1241985 77.74395214 49.1241985 115.82395214 49.1241985 C115.82395214 49.4541985 115.82395214 49.7841985 115.82395214 50.1241985 C100.45593765 50.14752803 85.08792398 50.16517794 69.71989578 50.17601067 C62.58473473 50.18117351 55.44958466 50.18821598 48.31443065 50.19963795 C41.43505477 50.21064525 34.55569032 50.21647467 27.67630619 50.21907574 C25.04513599 50.22093055 22.41396645 50.22455223 19.78280109 50.22992855 C16.11168964 50.23713485 12.44062611 50.23818961 8.76950878 50.23772389 C7.11982097 50.2431168 7.11982097 50.2431168 5.43680614 50.24861866 C4.4425613 50.247244 3.44831646 50.24586933 2.42394298 50.24445301 C1.5546922 50.24537481 0.68544142 50.2462966 -0.2101503 50.24724633 C-2.17604786 50.1241985 -2.17604786 50.1241985 -3.17604786 49.1241985 C-3.27435932 47.62549802 -3.30403242 46.12221311 -3.30544239 44.62029225 C-3.30859455 43.66259938 -3.31174671 42.7049065 -3.31499439 41.71819264 C-3.31297016 40.67654957 -3.31094593 39.6349065 -3.30886036 38.5616985 C-3.30981709 37.50007496 -3.31077381 36.43845143 -3.31175953 35.34465748 C-3.3124415 33.09506378 -3.31058605 30.84546813 -3.30641896 28.59587818 C-3.30107096 25.13912778 -3.30636341 21.68250732 -3.31276661 18.225761 C-3.31210583 16.04607321 -3.31082468 13.8663855 -3.30886036 11.6866985 C-3.31088459 10.64505543 -3.31290882 9.60341236 -3.31499439 8.53020436 C-3.31184223 7.57251148 -3.30869007 6.61481861 -3.30544239 5.62810475 C-3.3046468 4.78062672 -3.30385121 3.93314869 -3.3030315 3.05998951 C-3.12062652 0.27933268 -2.78196631 0.15878145 0 0 Z " fill="#F4F77D" transform="translate(389.1760478615761,304.8758015036583)"/>
<path d="M0 0 C2.87110893 0.30761881 3.96268285 0.96381367 6.0625 3 C10.1489076 9.32734079 11.1661808 14.78323242 11.078125 22.31640625 C11.0668457 23.5701001 11.05556641 24.82379395 11.04394531 26.11547852 C11.02219238 27.54331665 11.02219238 27.54331665 11 29 C1.18781569 29.18671149 -8.62471051 29.34904155 -18.4375 29.5 C-19.21357479 29.51202454 -19.98964958 29.52404907 -20.78924179 29.53643799 C-45.4193029 29.91357202 -70.0469629 30.04161055 -94.6796875 30.03125 C-95.36161423 30.03100264 -96.04354096 30.03075527 -96.74613214 30.03050041 C-110.55743064 30.02520698 -124.36869946 30.00966087 -138.17996073 29.97678709 C-144.09419866 29.96280605 -150.00843917 29.95314083 -155.92268753 29.94456482 C-159.5738359 29.93763419 -163.2249363 29.92501815 -166.87606812 29.91223145 C-169.08380081 29.90864066 -171.29153398 29.90532843 -173.49926758 29.90234375 C-174.99529841 29.89459805 -174.99529841 29.89459805 -176.52155209 29.88669586 C-177.43944798 29.88662285 -178.35734388 29.88654984 -179.30305481 29.88647461 C-180.09462888 29.884254 -180.88620295 29.88203339 -181.70176411 29.87974548 C-184.47256082 29.96918375 -184.47256082 29.96918375 -189 31 C-189.33 44.86 -189.66 58.72 -190 73 C-126.64 73 -63.28 73 2 73 C2 73.33 2 73.66 2 74 C-23.65106671 74.02333136 -49.30213184 74.04098035 -74.95320702 74.05181217 C-86.86268849 74.05697462 -98.77216338 74.06401636 -110.68164062 74.07543945 C-121.05853741 74.08538784 -131.43542942 74.0918538 -141.81233084 74.09408849 C-147.30987425 74.09539534 -152.80740403 74.09847954 -158.30494308 74.10573006 C-163.47420059 74.1124927 -168.64343877 74.11461646 -173.81270027 74.11310768 C-175.71467888 74.1133839 -177.6166581 74.11538758 -179.51863289 74.11920547 C-182.10598242 74.12414651 -184.69325805 74.12299674 -187.28060913 74.12025452 C-188.42164583 74.12462378 -188.42164583 74.12462378 -189.58573377 74.12908131 C-194.77175758 74.11412121 -194.77175758 74.11412121 -197 73 C-197.0505894 66.20071581 -197.08568667 59.4014799 -197.10986328 52.60205078 C-197.11993892 50.28757921 -197.13359975 47.97312041 -197.15087891 45.65869141 C-197.17505865 42.33753307 -197.1864673 39.0165426 -197.1953125 35.6953125 C-197.20563507 34.65569366 -197.21595764 33.61607483 -197.22659302 32.54495239 C-197.22674408 31.58410736 -197.22689514 30.62326233 -197.22705078 29.63330078 C-197.231492 28.78502716 -197.23593323 27.93675354 -197.24050903 27.06277466 C-197 25 -197 25 -195 23 C-192.34166354 22.80674479 -189.78792483 22.73953427 -187.12875366 22.75949097 C-186.30625079 22.75778212 -185.48374791 22.75607327 -184.63632071 22.75431263 C-181.86471919 22.7510036 -179.09335677 22.76204456 -176.32177734 22.77294922 C-174.34121201 22.77351303 -172.36064626 22.77319737 -170.38008118 22.77206421 C-164.98983932 22.77148851 -159.59968581 22.78327784 -154.20946455 22.79721212 C-148.5813488 22.80968343 -142.9532312 22.81088713 -137.32510376 22.81326294 C-126.661403 22.81948832 -115.99774306 22.83591342 -105.33406031 22.85596192 C-93.19640292 22.87828805 -81.05874362 22.88930607 -68.92107081 22.89935279 C-43.94735788 22.92027875 -18.97368122 22.95547523 6 23 C5.71854148 21.26957936 5.42759958 19.54069995 5.1328125 17.8125 C4.97184082 16.84957031 4.81086914 15.88664062 4.64501953 14.89453125 C3.83839953 11.27481638 2.46592225 8.1732179 0.8046875 4.875 C0 3 0 3 0 0 Z " fill="#E2EC7C" transform="translate(583,390)"/>
<path d="M0 0 C56.1 0 112.2 0 170 0 C170 0.33 170 0.66 170 1 C160.17549779 1.13195224 150.35097721 1.26243568 140.52643204 1.39115143 C135.96227326 1.45099237 131.39812174 1.51129969 126.83398438 1.57275391 C122.41191823 1.63227668 117.98983624 1.69046865 113.56774139 1.74781799 C111.89844919 1.76968525 110.22916273 1.79199584 108.55988312 1.81480408 C96.37260032 1.98089663 84.18837567 2.02528917 72 2 C71.67 2.66 71.34 3.32 71 4 C62.55960496 4.26112862 54.11919983 4.52192769 45.67878151 4.78230286 C41.75980761 4.90320818 37.84083733 5.02422819 33.921875 5.14550781 C30.14178656 5.26248554 26.36168903 5.37916526 22.58158493 5.49563599 C21.13745163 5.5401848 19.69332168 5.58484205 18.2491951 5.62960815 C16.23075476 5.69215894 14.2123015 5.75429277 12.19384766 5.81640625 C11.04357086 5.85193604 9.89329407 5.88746582 8.7081604 5.92407227 C7.13918606 5.96806104 5.56959087 6 4 6 C4 67.38 4 128.76 4 192 C3.34 192 2.68 192 2 192 C1.67 280.77 1.34 369.54 1 461 C0.67 461 0.34 461 0 461 C0 308.87 0 156.74 0 0 Z " fill="#F8F8A8" transform="translate(271,182)"/>
<path d="M0 0 C-0.92126406 3.35924334 -1.47869446 4.69777072 -4.546875 6.4765625 C-11.63287295 9.01715201 -18.59670614 10.95376061 -26.00390625 12.32421875 C-28.89519579 12.84297505 -28.89519579 12.84297505 -30.90797424 13.99052429 C-48.13518028 22.30325465 -76.14449529 18.55349154 -94.94732666 18.66955566 C-99.36667515 18.69987957 -103.78585679 18.746224 -108.20507812 18.79101562 C-116.80330139 18.87590558 -125.4015418 18.94374349 -134 19 C-134.16941919 25.65263867 -134.32907444 32.3054621 -134.48217773 38.95849609 C-134.53530624 41.21831476 -134.59060965 43.47808344 -134.64819336 45.73779297 C-134.73092467 48.99956487 -134.8056428 52.26144081 -134.87890625 55.5234375 C-134.90594131 56.52176605 -134.93297638 57.5200946 -134.96083069 58.54867554 C-135.09118868 64.77744254 -134.77282109 70.81753704 -134 77 C-133.01 77.33 -132.02 77.66 -131 78 C-132.485 78.495 -132.485 78.495 -134 79 C-141.24579369 71.23664962 -142.60299489 62.39513344 -142.4609375 52.15625 C-142.46002106 51.06534058 -142.45910461 49.97443115 -142.4581604 48.85046387 C-142.45215805 46.5646525 -142.43651468 44.27884775 -142.41162109 41.99316406 C-142.37481266 38.48213044 -142.37060431 34.9721451 -142.37109375 31.4609375 C-142.36127264 29.23436582 -142.34962006 27.0078013 -142.3359375 24.78125 C-142.33371185 23.72925415 -142.33148621 22.6772583 -142.32919312 21.59338379 C-142.31643341 20.62477417 -142.30367371 19.65616455 -142.29052734 18.65820312 C-142.28290375 17.80456177 -142.27528015 16.95092041 -142.26742554 16.07141113 C-142 14 -142 14 -140 12 C-137.19190979 11.72825623 -137.19190979 11.72825623 -133.55688477 11.69702148 C-132.89460876 11.68858215 -132.23233276 11.68014282 -131.54998779 11.67144775 C-129.34712009 11.64554999 -127.14438791 11.63348195 -124.94140625 11.62109375 C-123.39793362 11.6049 -121.85447108 11.58771806 -120.3110199 11.56959534 C-116.22647889 11.52377747 -112.14192323 11.48909559 -108.05725098 11.45739746 C-71.26225846 11.60634056 -71.26225846 11.60634056 -34.75 7.75 C-32.8174939 7.4238269 -32.8174939 7.4238269 -30.84594727 7.09106445 C-22.83564219 5.677183 -15.28153555 3.89878673 -7.71484375 0.91796875 C-4.95893005 -0.01388696 -2.88532614 -0.18529617 0 0 Z " fill="#DAE86D" transform="translate(528,517)"/>
<path d="M0 0 C2.63108252 1.35705492 4.58006574 3.19022525 6.6875 5.25 C7.89522955 6.35742967 9.10358107 7.46418134 10.3125 8.5703125 C10.9209375 9.14040039 11.529375 9.71048828 12.15625 10.29785156 C15.0858242 13.00243198 18.14122997 15.55375153 21.1875 18.125 C25.61866045 21.91816777 30.02521124 25.73868405 34.375 29.625 C35.26960938 30.42164063 36.16421875 31.21828125 37.0859375 32.0390625 C39 34 39 34 39 36 C35.53846154 39 35.53846154 39 33 39 C32.85884766 38.09507812 32.85884766 38.09507812 32.71484375 37.171875 C31.82828139 34.47827569 30.88101777 33.83610873 28.5625 32.25 C20.477723 26.50178089 12.90489795 20.13410043 5.37817383 13.6809082 C0.81482608 9.53129793 0.81482608 9.53129793 -4.86328125 7.64453125 C-8.73174502 8.08292503 -10.19502885 9.2254521 -13.1875 11.6875 C-18.52403694 15.90476328 -23.99354889 19.81016372 -29.625 23.625 C-31.2800142 24.74990249 -32.93496402 25.8748997 -34.58984375 27 C-35.36054199 27.52335938 -36.13124023 28.04671875 -36.92529297 28.5859375 C-40.11173339 30.7577265 -43.26493443 32.97548799 -46.41796875 35.1953125 C-49.93118644 37.65084438 -53.46602072 40.07448091 -57 42.5 C-68.32679169 50.20274105 -68.32679169 50.20274105 -79.3125 58.375 C-82.15311416 60.54147247 -84.33601483 61.77100093 -88 62 C-88.390625 58.80859375 -88.390625 58.80859375 -88 55 C-85.88460299 52.9252837 -84.2106659 51.59667003 -81.75 50.0625 C-81.10885254 49.63485352 -80.46770508 49.20720703 -79.80712891 48.76660156 C-77.88463123 47.48938116 -75.9443952 46.24353237 -74 45 C-72.12305645 43.75292025 -70.24793338 42.50309439 -68.375 41.25 C-67.40691406 40.610625 -66.43882812 39.97125 -65.44140625 39.3125 C-53.01883826 31.02828674 -40.91668827 22.24438229 -28.72265625 13.62890625 C-20.34662997 7.71205245 -20.34662997 7.71205245 -16.9921875 5.40234375 C-15.26194749 4.18439049 -13.59305134 2.88018372 -11.9375 1.5625 C-7.89885798 -0.58571384 -4.49750498 -0.73243862 0 0 Z " fill="#95CA53" transform="translate(419,679)"/>
<path d="M0 0 C5.78095734 2.09816472 9.4055249 4.82994307 13.75 9.125 C14.98320544 10.30857027 16.21890337 11.48954878 17.45703125 12.66796875 C18.36122803 13.52914307 18.36122803 13.52914307 19.28369141 14.40771484 C21.57792182 16.53616019 23.98687314 18.49238362 26.4375 20.4375 C31.00272058 24.08833178 35.25670922 27.98666478 39.5 32 C44.58024452 36.79984554 49.74778321 41.37156352 55.20703125 45.7421875 C60.2886132 49.8500957 65.21321775 54.14313675 70.15869141 58.41308594 C72.00160629 60.00138437 73.84995974 61.5831579 75.69921875 63.1640625 C84.69175055 70.87547293 93.39522656 78.85902995 102 87 C101.505 88.485 101.505 88.485 101 90 C90.77672137 90.13961845 80.55367315 90.24593272 70.32963181 90.31087303 C65.58106323 90.34205679 60.83315156 90.38428937 56.08496094 90.45263672 C51.4942717 90.51829606 46.90421038 90.55380322 42.31308746 90.56926346 C40.57010272 90.58026697 38.82714858 90.60175272 37.08443451 90.63438034 C26.15025574 90.8307704 18.39476505 90.16545111 9 84 C9.495 83.01 9.495 83.01 10 82 C10.7734375 82.52400391 10.7734375 82.52400391 11.5625 83.05859375 C18.27611202 86.8565185 24.19478965 87.45438232 31.7890625 87.65234375 C32.83389801 87.68733978 33.87873352 87.72233582 34.95523071 87.75839233 C45.98889625 88.09481268 57.02493948 88.15174673 68.06298828 88.13037109 C71.44958722 88.12487904 74.83606062 88.13042846 78.22265625 88.13671875 C80.38541696 88.13605999 82.54817759 88.13478304 84.7109375 88.1328125 C85.71901459 88.13483673 86.72709167 88.13686096 87.76571655 88.13894653 C88.68913849 88.13579437 89.61256042 88.13264221 90.56396484 88.12939453 C91.78108658 88.12820114 91.78108658 88.12820114 93.02279663 88.12698364 C95.07656046 88.12379005 95.07656046 88.12379005 97 87 C96.28972656 86.60167969 95.57945312 86.20335937 94.84765625 85.79296875 C93.92855469 85.26316406 93.00945312 84.73335937 92.0625 84.1875 C91.14597656 83.66542969 90.22945312 83.14335938 89.28515625 82.60546875 C87 81 87 81 86 78 C84.33831868 77.32100263 82.67075006 76.6563661 81 76 C78.640625 74.08203125 78.640625 74.08203125 76.25 71.8125 C73.1341115 68.92180108 70.02351507 66.17697586 66.625 63.625 C61.75831056 59.92114786 57.31976008 55.78494624 52.84375 51.62890625 C49.96207875 48.96494368 47.02637948 46.37923361 44.05859375 43.8125 C41.50137858 41.56098607 39.00514299 39.24676761 36.5 36.9375 C32.73294724 33.49869665 28.91445312 30.30835454 24.79296875 27.30859375 C22.06948846 25.32086848 19.50749016 23.25674114 17 21 C17 20.34 17 19.68 17 19 C16.1028125 18.566875 16.1028125 18.566875 15.1875 18.125 C13 17 13 17 10 15 C10 14.34 10 13.68 10 13 C9.46375 12.773125 8.9275 12.54625 8.375 12.3125 C5.17539839 10.54429911 2.70962777 8.46329797 0 6 C0 5.34 0 4.68 0 4 C-1.32 3.34 -2.64 2.68 -4 2 C-3.01 2 -2.02 2 -1 2 C-0.67 1.34 -0.34 0.68 0 0 Z " fill="#27915B" transform="translate(571,676)"/>
<path d="M0 0 C117.48 0 234.96 0 356 0 C355.67 0.66 355.34 1.32 355 2 C238.18 1.67 121.36 1.34 1 1 C1 163.03 1 325.06 1 492 C1.99 492.33 2.98 492.66 4 493 C3.02149805 494.02104551 2.02019573 495.0206121 1 496 C0.67 496 0.34 496 0 496 C0 332.32 0 168.64 0 0 Z " fill="#333B17" transform="translate(331,238)"/>
<path d="M0 0 C0.87462891 0.02707031 1.74925781 0.05414063 2.65039062 0.08203125 C4.78884112 0.15214438 6.92600695 0.25974463 9.0625 0.375 C9.0625 1.035 9.0625 1.695 9.0625 2.375 C9.7225 2.375 10.3825 2.375 11.0625 2.375 C11.3925 1.715 11.7225 1.055 12.0625 0.375 C12.743125 0.849375 13.42375 1.32375 14.125 1.8125 C17.48705187 3.60082546 20.31191406 3.88881293 24.0625 4.375 C25.0525 5.035 26.0425 5.695 27.0625 6.375 C27.0625 7.035 27.0625 7.695 27.0625 8.375 C28.7125 8.705 30.3625 9.035 32.0625 9.375 C32.5575 11.355 32.5575 11.355 33.0625 13.375 C33.76117187 13.36339844 34.45984375 13.35179687 35.1796875 13.33984375 C36.54480469 13.32630859 36.54480469 13.32630859 37.9375 13.3125 C39.29488281 13.29509766 39.29488281 13.29509766 40.6796875 13.27734375 C43.0625 13.375 43.0625 13.375 45.0625 14.375 C45.0625 15.035 45.0625 15.695 45.0625 16.375 C45.7225 16.375 46.3825 16.375 47.0625 16.375 C45.83488084 20.42614323 43.74965464 22.9834659 40.9609375 26.10546875 C37.10609609 30.71382854 33.75655006 35.72938719 30.29541016 40.63671875 C28.51254894 43.15037655 26.69448967 45.63777529 24.875 48.125 C21.20131277 53.16042058 17.61670768 58.25471956 14.0625 63.375 C13.4025 63.045 12.7425 62.715 12.0625 62.375 C18.39194539 53.06475368 24.82519467 43.84531822 31.46948242 34.75634766 C32.49317219 33.35133385 33.51080728 31.94188618 34.52197266 30.52783203 C35.60595339 29.01300761 36.70613881 27.50971311 37.81787109 26.01513672 C38.37684082 25.23541504 38.93581055 24.45569336 39.51171875 23.65234375 C40.02436279 22.95230225 40.53700684 22.25226074 41.06518555 21.53100586 C42.49693558 18.99191552 42.49693558 18.99191552 41.0625 14.375 C10.3725 14.375 -20.3175 14.375 -51.9375 14.375 C-48.24415326 12.52832663 -47.25863122 12.13222541 -43.4375 12.25 C-42.6846875 12.26804688 -41.931875 12.28609375 -41.15625 12.3046875 C-40.4240625 12.32789063 -39.691875 12.35109375 -38.9375 12.375 C-37.6175 12.375 -36.2975 12.375 -34.9375 12.375 C-34.463125 11.900625 -33.98875 11.42625 -33.5 10.9375 C-31.45904293 8.89654293 -29.74345333 8.75418288 -26.9375 8.375 C-26.6075 9.035 -26.2775 9.695 -25.9375 10.375 C-24.9475 10.375 -23.9575 10.375 -22.9375 10.375 C-22.6075 9.385 -22.2775 8.395 -21.9375 7.375 C-21.256875 7.33375 -20.57625 7.2925 -19.875 7.25 C-16.74118304 6.31652261 -16.06722574 5.60851262 -13.875 3.34375 C-9.4856397 -0.52470185 -5.63003369 -0.33394877 0 0 Z " fill="#414615" transform="translate(749.9375,167.625)"/>
<path d="M0 0 C0.78694966 0.00291284 1.57389933 0.00582568 2.38469595 0.00882679 C3.2145115 0.00797237 4.04432706 0.00711794 4.89928854 0.00623763 C7.70156959 0.00458028 10.5037918 0.01010834 13.30606741 0.01555592 C15.30618946 0.01583776 17.30631162 0.01568011 19.30643362 0.01511341 C24.75455674 0.01482532 30.20265805 0.02072386 35.65077609 0.02768737 C41.33762481 0.03391905 47.02447398 0.03452456 52.71132559 0.03571278 C63.48837598 0.03882665 74.26541629 0.04704078 85.04246223 0.05706227 C97.30827247 0.06822169 109.57408317 0.07373342 121.83989722 0.0787577 C147.07919588 0.08922335 172.31848557 0.10682386 197.55777639 0.12908131 C197.55777639 0.45908131 197.55777639 0.78908131 197.55777639 1.12908131 C182.03530142 1.2625868 166.51280293 1.39301237 150.99027532 1.52023274 C143.77497076 1.57943243 136.55967554 1.63948183 129.34439749 1.70183522 C99.91350175 1.95560692 70.48253408 2.18019707 41.05044454 2.21720082 C38.45228191 2.22090829 35.85412098 2.22620767 33.25596517 2.23322254 C29.66742444 2.24213252 26.07894405 2.24423579 22.49039358 2.24431568 C21.45357694 2.24788578 20.41676031 2.25145588 19.34852499 2.25513417 C12.3746416 2.24441391 5.49812988 1.80470571 -1.44222361 1.12908131 C-0.78222361 2.77908131 -0.12222361 4.42908131 0.55777639 6.12908131 C0.55777639 20.31908131 0.55777639 34.50908131 0.55777639 49.12908131 C37.51777639 49.12908131 74.47777639 49.12908131 112.55777639 49.12908131 C112.55777639 49.45908131 112.55777639 49.78908131 112.55777639 50.12908131 C97.1897619 50.15241084 81.82174823 50.17006075 66.45372003 50.18089348 C59.31855898 50.18605632 52.18340891 50.19309879 45.04825491 50.20452076 C38.16887902 50.21552806 31.28951458 50.22135748 24.41013044 50.22395855 C21.77896024 50.22581337 19.1477907 50.22943504 16.51662534 50.23481137 C12.84551389 50.24201766 9.17445036 50.24307242 5.50333303 50.2426067 C3.85364523 50.24799961 3.85364523 50.24799961 2.1706304 50.25350147 C1.17638555 50.25212681 0.18214071 50.25075215 -0.84223276 50.24933583 C-1.71148355 50.25025762 -2.58073433 50.25117941 -3.47632605 50.25212914 C-5.44222361 50.12908131 -5.44222361 50.12908131 -6.44222361 49.12908131 C-6.54053507 47.63038083 -6.57020817 46.12709592 -6.57161814 44.62517506 C-6.5747703 43.66748219 -6.57792246 42.70978932 -6.58117014 41.72307545 C-6.57914591 40.68143238 -6.57712168 39.63978932 -6.57503611 38.56658131 C-6.57599283 37.50495777 -6.57694956 36.44333424 -6.57793528 35.34954029 C-6.57861725 33.09994659 -6.5767618 30.85035094 -6.5725947 28.600761 C-6.56724671 25.14401059 -6.57253915 21.68739014 -6.57894236 18.23064381 C-6.57828158 16.05095602 -6.57700042 13.87126831 -6.57503611 11.69158131 C-6.57706034 10.64993824 -6.57908457 9.60829518 -6.58117014 8.53508717 C-6.57801798 7.5773943 -6.57486582 6.61970143 -6.57161814 5.63298756 C-6.57082255 4.78550953 -6.57002695 3.9380315 -6.56920725 3.06487232 C-6.30033774 -1.03388545 -3.44057324 0.00966035 0 0 Z " fill="#F4F694" transform="translate(392.4422236084938,304.8709186911583)"/>
<path d="M0 0 C0.71142464 -0.00115384 1.42284927 -0.00230769 2.15583223 -0.0034965 C4.56389175 -0.00616468 6.97188575 -0.00163934 9.37994194 0.00279331 C11.11408436 0.00235765 12.84822672 0.00148284 14.58236873 0.00020415 C19.36651937 -0.00204183 24.15064781 0.00198187 28.93479562 0.00698221 C34.08681951 0.01128505 39.23884206 0.0098404 44.39086723 0.00907993 C53.32336666 0.00855459 62.2558588 0.01170245 71.1883564 0.01731777 C84.10338257 0.02543141 97.0184052 0.02804785 109.93343364 0.02930576 C130.88524008 0.0314965 151.83704264 0.03815716 172.78884697 0.04760838 C193.14626865 0.05678194 213.50368927 0.06386304 233.86111259 0.06811619 C235.74213164 0.06851027 235.74213164 0.06851027 237.66115107 0.06891232 C243.95191972 0.07021732 250.24268838 0.07148104 256.53345704 0.07272422 C308.75384361 0.0830975 360.97422596 0.1007164 413.19460869 0.12304783 C413.19460869 0.45304783 413.19460869 0.78304783 413.19460869 1.12304783 C378.66504272 1.27673998 344.13545355 1.42464334 309.60584402 1.56817991 C302.31297732 1.598507 295.02011142 1.62900523 287.72724724 1.65993214 C267.36221493 1.74626063 246.99717446 1.8301239 226.63210869 1.90820408 C225.54729869 1.91236343 225.54729869 1.91236343 224.44057333 1.91660681 C185.92868397 2.06380979 147.41740373 2.16157097 108.90516567 2.12221003 C105.91087486 2.11917078 102.91658391 2.11646527 99.92229271 2.11383533 C82.73807279 2.09828826 65.55390525 2.07638165 48.3697629 2.02098602 C41.90869415 2.00041635 35.44763172 1.98596625 28.98653746 1.97634369 C24.64642442 1.96939059 20.30646629 1.95389256 15.96640897 1.93108213 C12.79281306 1.91683852 9.61920852 1.91529009 6.44558525 1.91186619 C4.75377569 1.89872757 4.75377569 1.89872757 3.02778816 1.88532352 C1.50527002 1.887276 1.50527002 1.887276 -0.04800606 1.88926792 C-0.92565495 1.88612552 -1.80330383 1.88298311 -2.70754814 1.87974548 C-5.02476672 1.92846569 -5.02476672 1.92846569 -6.80539131 4.12304783 C-7.09133983 6.27465489 -7.09133983 6.27465489 -7.01657295 8.80810642 C-7.01323448 9.81381687 -7.00989601 10.81952732 -7.00645638 11.85571384 C-6.99295647 12.98291843 -6.97945656 14.11012302 -6.96554756 15.27148533 C-6.95998344 16.4865073 -6.95441933 17.70152927 -6.9486866 18.95337009 C-6.93607836 21.67447782 -6.9200936 24.39535806 -6.89914131 27.116395 C-6.84105949 34.86849953 -6.82527768 42.62076148 -6.80929756 50.37304783 C-6.80725445 51.24225235 -6.80521133 52.11145687 -6.80310631 53.00700092 C-6.74435408 80.743868 -7.02910817 108.48020115 -7.268507 136.21576786 C-7.30559778 140.51385721 -7.34206029 144.81195175 -7.37841988 149.11004734 C-7.51678987 165.44774934 -7.65883899 181.78541699 -7.80539131 198.12304783 C-8.13539131 198.12304783 -8.46539131 198.12304783 -8.80539131 198.12304783 C-10.02532156 188.68890567 -9.89937955 179.31192236 -9.82711983 169.8217783 C-9.81696232 167.97796462 -9.80727027 166.13414832 -9.79800606 164.29032993 C-9.77167239 159.30963972 -9.73886374 154.3290111 -9.70485616 149.34836817 C-9.67036631 144.13405169 -9.64188185 138.91970241 -9.6127491 133.70535374 C-9.55673721 123.84231133 -9.49535675 113.97930999 -9.43202776 104.11631215 C-9.36016268 92.88294434 -9.29431253 81.64954377 -9.2289573 70.4161365 C-9.09444193 47.31839775 -8.95240652 24.22071017 -8.80539131 1.12304783 C-5.86940947 -0.34494309 -3.27970769 -0.00097668 0 0 Z " fill="#F3F87B" transform="translate(283.8053913116455,186.87695217132568)"/>
<path d="M0 0 C1.47533203 0.02707031 1.47533203 0.02707031 2.98046875 0.0546875 C5.40463783 0.10175874 7.82682059 0.16749258 10.25 0.25 C6.37676689 2.38102594 2.85188756 2.67756087 -1.5 2.875 C-2.54607422 2.93300781 -2.54607422 2.93300781 -3.61328125 2.9921875 C-5.32510818 3.08598624 -7.03751682 3.16906174 -8.75 3.25 C-7.97398437 3.89324219 -7.19796875 4.53648437 -6.3984375 5.19921875 C0.98435419 11.36059695 8.09437907 17.75295565 15.11328125 24.32421875 C19.76316225 28.67499262 24.5729568 32.82311187 29.421875 36.94921875 C30.61486315 37.96581756 31.80756205 38.98275588 33 40 C33.60368408 40.51481934 34.20736816 41.02963867 34.8293457 41.56005859 C39.29039345 45.382794 43.62433335 49.32346296 47.92749023 53.32202148 C51.04526159 56.19968564 54.24907813 58.91371732 57.5625 61.5625 C64.81808585 67.39250153 71.50217226 73.84821471 78.25 80.25 C74.73283697 80.25 73.87878252 79.42554415 71.25 77.25 C70.92 77.91 70.59 78.57 70.25 79.25 C69.56035156 78.68152344 68.87070312 78.11304688 68.16015625 77.52734375 C62.79768736 73.12114503 57.4095535 68.79201599 51.83203125 64.66015625 C51.30996094 64.19480469 50.78789063 63.72945312 50.25 63.25 C50.25 62.59 50.25 61.93 50.25 61.25 C49.67765625 60.99605469 49.1053125 60.74210938 48.515625 60.48046875 C45.98406686 59.10557079 44.12385679 57.50682214 42 55.5625 C41.20980469 54.84578125 40.41960938 54.1290625 39.60546875 53.390625 C38.43951172 52.33101562 38.43951172 52.33101562 37.25 51.25 C35.94052384 50.10071219 34.62816391 48.95469909 33.3125 47.8125 C30.25123615 45.1468269 27.24772484 42.42435413 24.25 39.6875 C21.28188352 37.0011955 18.30259622 34.4751665 15.0625 32.125 C12.45148382 30.22655198 10.17981245 28.2595155 7.9375 25.9375 C2.85068544 20.67568035 -2.96674483 16.21505117 -8.71875 11.70703125 C-11.51757381 9.47757601 -13.49015226 7.65158891 -14.75 4.25 C-11.0671236 -1.25265062 -5.94711347 -0.20589208 0 0 Z " fill="#A9CF61" transform="translate(472.75,575.75)"/>
<path d="M0 0 C0.99 0.33 1.98 0.66 3 1 C2.03276161 8.20425838 -0.39880261 12.48292446 -5 18 C-6.0491329 19.3902303 -7.09094701 20.78601702 -8.125 22.1875 C-8.62515625 22.85007812 -9.1253125 23.51265625 -9.640625 24.1953125 C-10.73052409 25.6422475 -11.80529625 27.10057154 -12.875 28.5625 C-23.59827668 40.86272913 -41.89774411 53.9823448 -58 58 C-58.99 57.67 -59.98 57.34 -61 57 C-60.01 55.68 -59.02 54.36 -58 53 C-58.33 52.34 -58.66 51.68 -59 51 C-58.29617188 50.731875 -57.59234375 50.46375 -56.8671875 50.1875 C-33.75839029 41.01638466 -14.48041562 26.26274885 -2.97265625 3.7421875 C-2 2 -2 2 0 0 Z " fill="#B4DA60" transform="translate(585,465)"/>
<path d="M0 0 C5.78095734 2.09816472 9.4055249 4.82994307 13.75 9.125 C14.98320544 10.30857027 16.21890337 11.48954878 17.45703125 12.66796875 C18.36122803 13.52914307 18.36122803 13.52914307 19.28369141 14.40771484 C21.57792182 16.53616019 23.98687314 18.49238362 26.4375 20.4375 C35.47372286 27.67453435 43.86361839 35.77080795 52 44 C50.68 43.34 49.36 42.68 48 42 C47.34 42.66 46.68 43.32 46 44 C42.28319298 41.92043657 39.29422115 39.59346373 36.1875 36.6875 C32.53527335 33.33917334 28.82371608 30.26735323 24.828125 27.34375 C22.09875079 25.33754332 19.5192228 23.26730052 17 21 C17 20.34 17 19.68 17 19 C16.1028125 18.566875 16.1028125 18.566875 15.1875 18.125 C13 17 13 17 10 15 C10 14.34 10 13.68 10 13 C9.46375 12.773125 8.9275 12.54625 8.375 12.3125 C5.17539839 10.54429911 2.70962777 8.46329797 0 6 C0 5.34 0 4.68 0 4 C-1.32 3.34 -2.64 2.68 -4 2 C-3.01 2 -2.02 2 -1 2 C-0.67 1.34 -0.34 0.68 0 0 Z " fill="#42A55E" transform="translate(571,676)"/>
<path d="M0 0 C0.99 0.495 0.99 0.495 2 1 C1.99777939 1.61954056 1.99555878 2.23908112 1.99327087 2.87739563 C1.96459075 11.35574784 1.94763034 19.83410738 1.9375 28.3125 C1.93664398 29.02353001 1.93578796 29.73456001 1.93490601 30.46713638 C1.90281739 60.87596244 2.1771105 91.2806177 2.5 121.6875 C2.51195782 122.81397068 2.52391563 123.94044136 2.53623581 125.10104752 C2.68502611 139.06743087 2.83969716 153.0337442 3 167 C4.485 166.01 4.485 166.01 6 165 C6.99 165.33 7.98 165.66 9 166 C6.03 167.98 3.06 169.96 0 172 C0 115.24 0 58.48 0 0 Z " fill="#A2D75C" transform="translate(275,673)"/>
<path d="M0 0 C0 0.66 0 1.32 0 2 C-20.79 2 -41.58 2 -63 2 C-63 1.67 -63 1.34 -63 1 C-62.38253906 0.97421875 -61.76507812 0.9484375 -61.12890625 0.921875 C-55.57664752 0.55003423 -51.26209643 -0.43120124 -46.30078125 -2.96484375 C-31.80581726 -9.48634707 -14.00869307 -6.38449286 0 0 Z " fill="#707420" transform="translate(781,180)"/>
<path d="M0 0 C0.99 0.33 1.98 0.66 3 1 C3 34.99 3 68.98 3 104 C1.68 103.34 0.36 102.68 -1 102 C-0.67 68.34 -0.34 34.68 0 0 Z " fill="#C9EB66" transform="translate(272,741)"/>
<path d="M0 0 C0.33 0 0.66 0 1 0 C1 91.74 1 183.48 1 278 C0.34 278 -0.32 278 -1 278 C-1.19635974 274.54210946 -1.38058252 271.08367803 -1.5625 267.625 C-1.61857422 266.64015625 -1.67464844 265.6553125 -1.73242188 264.640625 C-1.78076172 263.69960938 -1.82910156 262.75859375 -1.87890625 261.7890625 C-1.9260376 260.91975098 -1.97316895 260.05043945 -2.02172852 259.15478516 C-2 257 -2 257 -1 255 C-0.90243814 253.59311265 -0.86617867 252.18173257 -0.8613348 250.77147484 C-0.85586036 249.87922687 -0.85038591 248.9869789 -0.84474558 248.06769311 C-0.84376747 247.08132698 -0.84278936 246.09496085 -0.84178162 245.07870483 C-0.83684364 244.03569013 -0.83190566 242.99267543 -0.82681805 241.91805422 C-0.8113802 238.40028653 -0.80306546 234.88253716 -0.79467773 231.36474609 C-0.78510415 228.85216611 -0.77509438 226.33958775 -0.76467896 223.82701111 C-0.74319318 218.40587277 -0.72475985 212.98473754 -0.70907402 207.56357956 C-0.68638955 199.72543692 -0.65824476 191.88732144 -0.62875474 184.0492018 C-0.58106136 171.3332689 -0.53780192 158.61732492 -0.49731445 145.90136719 C-0.4579684 133.54686622 -0.41654432 121.19237511 -0.37231445 108.83789062 C-0.36959018 108.0767322 -0.36686591 107.31557377 -0.36405908 106.53134994 C-0.35037975 102.71295292 -0.33665945 98.89455604 -0.32291877 95.07615924 C-0.20892657 63.38412645 -0.1021969 31.69207309 0 0 Z " fill="#A8D46E" transform="translate(330,456)"/>
<path d="M0 0 C19.8 0 39.6 0 60 0 C59.34 1.32 58.68 2.64 58 4 C51.53133649 5.41839506 44.87886924 5.130013 38.28125 5.09765625 C37.18276733 5.0962413 36.08428467 5.09482635 34.95251465 5.09336853 C31.46831457 5.08780257 27.98418042 5.07525639 24.5 5.0625 C22.1276051 5.0574806 19.75520918 5.05291846 17.3828125 5.04882812 C11.58851944 5.0378443 5.79426443 5.0211403 0 5 C0 3.35 0 1.7 0 0 Z " fill="#D4E86D" transform="translate(650,414)"/>
<path d="M0 0 C3.69186108 2.07216359 6.7061081 4.37947307 9.8125 7.25 C12.87152892 10.05109305 15.93321 12.8400177 19.0625 15.5625 C19.69285156 16.11421875 20.32320313 16.6659375 20.97265625 17.234375 C22.47499496 18.54277018 23.98382572 19.84371909 25.49609375 21.140625 C26.32238281 21.85734375 27.14867187 22.5740625 28 23.3125 C28.763125 23.96863281 29.52625 24.62476563 30.3125 25.30078125 C32 27 32 27 32 29 C28.53846154 32 28.53846154 32 26 32 C25.90589844 31.39671875 25.81179688 30.7934375 25.71484375 30.171875 C24.82828139 27.47827569 23.88101777 26.83610873 21.5625 25.25 C11.92700048 18.39922818 2.98965054 10.66515658 -6 3 C-5.38125 2.87625 -4.7625 2.7525 -4.125 2.625 C-1.80879168 2.12802644 -1.80879168 2.12802644 0 0 Z " fill="#8CC758" transform="translate(426,686)"/>
<path d="M0 0 C2.87110893 0.30761881 3.96268285 0.96381367 6.0625 3 C10.1489076 9.32734079 11.1661808 14.78323242 11.078125 22.31640625 C11.06120605 24.19694702 11.06120605 24.19694702 11.04394531 26.11547852 C11.02944336 27.06737061 11.01494141 28.0192627 11 29 C1.78339505 29.13248201 -7.43323547 29.26298075 -16.64990139 29.39115143 C-20.93254886 29.45076563 -25.21518572 29.51098789 -29.49780273 29.57275391 C-48.99970409 29.85356716 -68.49548311 30.09195656 -88 30 C-88 29.67 -88 29.34 -88 29 C-76.73270573 27.97568072 -65.56115946 27.86861219 -54.2578125 27.90234375 C-52.39452147 27.90421352 -50.53122994 27.90563477 -48.66793823 27.90663147 C-43.81177362 27.91041271 -38.95563989 27.92020438 -34.0994873 27.93133545 C-29.12492287 27.94164511 -24.15035334 27.94614937 -19.17578125 27.95117188 C-9.45050742 27.9618315 0.2747437 27.97885376 10 28 C9.01 25.525 9.01 25.525 8 23 C7.34 23 6.68 23 6 23 C5.90203125 22.31035156 5.8040625 21.62070312 5.703125 20.91015625 C4.77687044 15.08912541 3.4597836 10.14643167 0.8046875 4.875 C0 3 0 3 0 0 Z " fill="#D4E968" transform="translate(583,390)"/>
<path d="M0 0 C0.99 0.226875 1.98 0.45375 3 0.6875 C1.43115616 4.17654334 -0.66174822 6.98114993 -3 10 C-6.64083086 14.7973995 -10.09718 19.67640687 -13.4375 24.6875 C-14.07461914 25.63943237 -14.07461914 25.63943237 -14.72460938 26.6105957 C-16.67476573 29.55748989 -18.52813026 32.47029839 -20 35.6875 C-21.98 35.6875 -23.96 35.6875 -26 35.6875 C-25.364322 32.39936604 -24.16715867 30.1027611 -22.33984375 27.30859375 C-21.79730957 26.47424805 -21.25477539 25.63990234 -20.69580078 24.78027344 C-20.11556152 23.9040332 -19.53532227 23.02779297 -18.9375 22.125 C-18.34694824 21.23200195 -17.75639648 20.33900391 -17.14794922 19.41894531 C-15.97113019 17.64615035 -14.79118432 15.87542653 -13.60791016 14.10693359 C-12.24830549 12.061127 -10.92047482 10.00031171 -9.60546875 7.92578125 C-4.40503621 0.07897475 -4.40503621 0.07897475 0 0 Z " fill="#CAE368" transform="translate(691,238.3125)"/>
<path d="M0 0 C-2.60316022 0.48523151 -5.2073378 0.96323254 -7.8125 1.4375 C-8.53115234 1.57220703 -9.24980469 1.70691406 -9.99023438 1.84570312 C-21.8412989 3.98620377 -33.69268003 4.1921101 -45.69921875 4.31640625 C-47.38744055 4.33702124 -49.07565771 4.35801875 -50.76387024 4.37937927 C-55.17121591 4.43413129 -59.57860445 4.48374386 -63.98602295 4.53222656 C-68.49788147 4.58278759 -73.00967901 4.63829158 -77.52148438 4.69335938 C-86.34760444 4.80036614 -95.17377608 4.90193457 -104 5 C-104.16941919 11.65263867 -104.32907444 18.3054621 -104.48217773 24.95849609 C-104.53530624 27.21831476 -104.59060965 29.47808344 -104.64819336 31.73779297 C-104.73092467 34.99956487 -104.8056428 38.26144081 -104.87890625 41.5234375 C-104.90594131 42.52176605 -104.93297638 43.5200946 -104.96083069 44.54867554 C-105.09118868 50.77744254 -104.77282109 56.81753704 -104 63 C-103.01 63.33 -102.02 63.66 -101 64 C-102.485 64.495 -102.485 64.495 -104 65 C-107.57757693 60.80559946 -111 56.69511947 -111 51 C-110.01 51 -109.02 51 -108 51 C-107.18397921 45.21475949 -106.81676063 39.56086885 -106.71875 33.72265625 C-106.68100553 31.97591111 -106.64324465 30.22916633 -106.60546875 28.48242188 C-106.55156799 25.75449967 -106.49932046 23.02655127 -106.44775391 20.29858398 C-106.39623459 17.6481753 -106.3389722 14.99793593 -106.28125 12.34765625 C-106.26767456 11.52483658 -106.25409912 10.70201691 -106.2401123 9.85426331 C-106.11297142 4.11297142 -106.11297142 4.11297142 -105 3 C-102.77089721 2.89155625 -100.53835062 2.8536772 -98.30664062 2.84228516 C-97.60538055 2.83720444 -96.90412048 2.83212372 -96.18161011 2.82688904 C-94.64892341 2.81615073 -93.11622069 2.80754426 -91.58351135 2.80076981 C-89.13172443 2.78894421 -86.6801108 2.76946586 -84.22839355 2.74765015 C-77.25291041 2.68627343 -70.2774316 2.63269661 -63.30175781 2.59863281 C-58.2114122 2.57246085 -53.12136006 2.53218477 -48.03125 2.4765625 C-47.20316833 2.46756172 -46.37508667 2.45856094 -45.52191162 2.44928741 C-32.22841383 2.27974911 -19.26259084 1.30427722 -6.12219238 -0.84805298 C-3.85125051 -1.01065033 -2.16341971 -0.67085965 0 0 Z " fill="#C3E05D" transform="translate(498,531)"/>
<path d="M0 0 C1.10522979 0.00092179 2.21045958 0.00184359 3.34918118 0.00279331 C5.24442783 0.00073132 5.24442783 0.00073132 7.1779623 -0.00137234 C8.59110951 0.00216728 10.00425648 0.00580209 11.41740322 0.00952244 C12.89536442 0.0098043 14.37332577 0.00964659 15.85128689 0.00907993 C19.87590486 0.00879193 23.9004933 0.01468912 27.92510438 0.02165389 C32.12651023 0.02788694 36.32791668 0.02849119 40.52932644 0.0296793 C48.49080915 0.03279276 56.4522782 0.04100634 64.41375488 0.05102879 C73.47527247 0.06218947 82.5367907 0.06770026 91.59831345 0.07272422 C110.24366559 0.08318894 128.88900499 0.10078867 147.53434658 0.12304783 C147.53434658 0.45304783 147.53434658 0.78304783 147.53434658 1.12304783 C99.02434658 1.45304783 50.51434658 1.78304783 0.53434658 2.12304783 C-0.12992446 5.44440303 -0.59632714 7.99688109 -0.67097569 11.27075291 C-0.69092091 12.05118458 -0.71086613 12.83161625 -0.73141575 13.63569736 C-0.74812824 14.46296833 -0.76484074 15.2902393 -0.78205967 16.14257908 C-0.80284077 17.00115009 -0.82362186 17.85972111 -0.84503269 18.74430943 C-0.91017865 21.47464437 -0.96924996 24.20507178 -1.02815342 26.93554783 C-1.07137192 28.79167701 -1.11498725 30.64779699 -1.15901279 32.5039072 C-1.26582403 37.04352708 -1.36718907 41.58323955 -1.46565342 46.12304783 C-1.79565342 46.12304783 -2.12565342 46.12304783 -2.46565342 46.12304783 C-2.63348972 39.73283391 -2.79345126 33.34245835 -2.94783115 26.95190525 C-3.00133643 24.77607815 -3.05667207 22.60029527 -3.11384678 20.4245615 C-3.19552057 17.30462277 -3.27069874 14.18458629 -3.34455967 11.06445408 C-3.37159473 10.0852953 -3.3986298 9.10613651 -3.42648411 8.09730625 C-3.44658039 7.19644794 -3.46667667 6.29558964 -3.48738194 5.36743259 C-3.50736744 4.57023304 -3.52735294 3.77303349 -3.54794407 2.95167637 C-3.418328 0.07140202 -2.87526115 0.1434892 0 0 Z " fill="#FAFA9B" transform="translate(389.46565341949463,413.8769521713257)"/>
<path d="M0 0 C1.33333333 0.66666667 2.66666667 1.33333333 4 2 C5.34384766 2.58394531 5.34384766 2.58394531 6.71484375 3.1796875 C10.72102975 5.39952421 13.66627058 8.14203453 16.9375 11.3125 C18.11198129 12.43495554 19.28776125 13.55605382 20.46484375 14.67578125 C21.03960449 15.22314941 21.61436523 15.77051758 22.20654297 16.33447266 C25.05820359 18.98272052 28.02025375 21.49769359 31 24 C30.01 24 29.02 24 28 24 C27.34 24.66 26.68 25.32 26 26 C18.22930775 21.42191775 11.97310169 15.51992699 5.46240234 9.36523438 C2.72498904 6.80970596 -0.12931578 4.40336353 -3 2 C-2.01 1.34 -1.02 0.68 0 0 Z " fill="#79BF5C" transform="translate(544,653)"/>
<path d="M0 0 C15.84 0 31.68 0 48 0 C46.68 0.33 45.36 0.66 44 1 C43.67 1.99 43.34 2.98 43 4 C28.81 4 14.62 4 0 4 C0 2.68 0 1.36 0 0 Z " fill="#FEFDA1" transform="translate(741,183)"/>
<path d="M0 0 C6.93 0 13.86 0 21 0 C21.99 2.475 21.99 2.475 23 5 C21.8828125 7.23828125 21.8828125 7.23828125 20.125 9.3125 C19.26261719 10.35857422 19.26261719 10.35857422 18.3828125 11.42578125 C17.69832031 12.20501953 17.69832031 12.20501953 17 13 C17 10 17 10 18 7 C16.05009155 7.00785522 16.05009155 7.00785522 14.06079102 7.01586914 C-14.97745736 7.12224374 -43.97485433 6.89704544 -73 6 C-73 5.67 -73 5.34 -73 5 C-29.935 4.505 -29.935 4.505 14 4 C14.33 3.34 14.66 2.68 15 2 C10.05 1.67 5.1 1.34 0 1 C0 0.67 0 0.34 0 0 Z " fill="#FDFB7F" transform="translate(770,182)"/>
<path d="M0 0 C5.86779754 2.11809529 9.57925392 4.96576194 14 9.3125 C15.16536628 10.43494543 16.33203162 11.55604371 17.5 12.67578125 C18.35271484 13.4968335 18.35271484 13.4968335 19.22265625 14.33447266 C22.05989153 16.99321154 25.02086104 19.50248096 28 22 C27.01 22 26.02 22 25 22 C24.34 21.34 23.68 20.68 23 20 C22.34 20.66 21.68 21.32 21 22 C18.875 21.625 18.875 21.625 17 21 C17 20.34 17 19.68 17 19 C16.1028125 18.566875 16.1028125 18.566875 15.1875 18.125 C13 17 13 17 10 15 C10 14.34 10 13.68 10 13 C9.46375 12.773125 8.9275 12.54625 8.375 12.3125 C5.17539839 10.54429911 2.70962777 8.46329797 0 6 C0 5.34 0 4.68 0 4 C-1.32 3.34 -2.64 2.68 -4 2 C-3.01 2 -2.02 2 -1 2 C-0.67 1.34 -0.34 0.68 0 0 Z " fill="#57B25D" transform="translate(571,676)"/>
<path d="M0 0 C0.33 0 0.66 0 1 0 C1 49.17 1 98.34 1 149 C1.99 149.33 2.98 149.66 4 150 C3.02149805 151.02104551 2.02019573 152.0206121 1 153 C0.67 153 0.34 153 0 153 C0 102.51 0 52.02 0 0 Z " fill="#0E1F0A" transform="translate(331,581)"/>
<path d="M0 0 C0 0.66 0 1.32 0 2 C2.31 2.33 4.62 2.66 7 3 C4.88578558 3.67956892 3.4635203 4.12142331 1.28515625 3.55078125 C-10.01801544 0.82642705 -20.61349359 3.66043225 -31 8 C-31.33 8.33 -31.66 8.66 -32 9 C-41.93354785 10.46560542 -51.98450404 10.09476088 -62 10 C-58.93878231 8.37543458 -56.98429601 7.76760731 -53.5 7.875 C-52.7471875 7.89304688 -51.994375 7.91109375 -51.21875 7.9296875 C-50.4865625 7.95289063 -49.754375 7.97609375 -49 8 C-47.68 8 -46.36 8 -45 8 C-44.525625 7.525625 -44.05125 7.05125 -43.5625 6.5625 C-41.52154293 4.52154293 -39.80595333 4.37918288 -37 4 C-36.67 4.66 -36.34 5.32 -36 6 C-35.01 6 -34.02 6 -33 6 C-32.67 5.01 -32.34 4.02 -32 3 C-30.33344913 2.66608818 -28.66675491 2.33289182 -27 2 C-26.14664063 1.82339844 -25.29328125 1.64679688 -24.4140625 1.46484375 C-16.18018114 -0.09198256 -8.34872057 -0.20529641 0 0 Z " fill="#575E1A" transform="translate(760,172)"/>
<path d="M0 0 C1.65 0 3.3 0 5 0 C3.11093222 6.00890455 0.91081501 11.74528662 -1.72265625 17.46484375 C-2.06880478 18.22422745 -2.41495331 18.98361115 -2.77159119 19.76600647 C-3.4962664 21.35260622 -4.2232227 22.93816596 -4.95239258 24.52270508 C-6.06953832 26.95281031 -7.17678294 29.38726135 -8.28320312 31.82226562 C-8.9916038 33.37005895 -9.70056781 34.9175946 -10.41015625 36.46484375 C-10.74040298 37.19186996 -11.07064972 37.91889618 -11.41090393 38.66795349 C-12.71914676 41.49734182 -13.77732284 43.77732284 -16 46 C-19.08524939 46.17553419 -22.07964202 46.23122797 -25.1640625 46.1953125 C-26.52487442 46.19106766 -26.52487442 46.19106766 -27.91317749 46.18673706 C-30.81725123 46.17552153 -33.72101912 46.15041463 -36.625 46.125 C-38.59114139 46.11497197 -40.5572876 46.10584581 -42.5234375 46.09765625 C-47.34907659 46.07557772 -52.1744864 46.04103865 -57 46 C-57 45.34 -57 44.68 -57 44 C-43.47 43.67 -29.94 43.34 -16 43 C-14.68 39.37 -13.36 35.74 -12 32 C-11.34 32 -10.68 32 -10 32 C-9.76410156 31.22914063 -9.52820313 30.45828125 -9.28515625 29.6640625 C-7.23491438 23.81869205 -4.67209184 18.19582016 -2.18945312 12.5234375 C-1.79564453 11.6159375 -1.40183594 10.7084375 -0.99609375 9.7734375 C-0.45746704 8.54246338 -0.45746704 8.54246338 0.09204102 7.28662109 C0.92076949 5.19953562 1.5171417 3.18966972 2 1 C1.34 0.67 0.68 0.34 0 0 Z " fill="#70B361" transform="translate(703,419)"/>
<path d="M0 0 C38.61 0 77.22 0 117 0 C116.34 1.65 115.68 3.3 115 5 C114.505 3.02 114.505 3.02 114 1 C76.38 1 38.76 1 0 1 C0 0.67 0 0.34 0 0 Z " fill="#E9F092" transform="translate(590,305)"/>
<path d="M0 0 C0 15.51 0 31.02 0 47 C-0.99 47 -1.98 47 -3 47 C-3 31.82 -3 16.64 -3 1 C-1 0 -1 0 0 0 Z " fill="#FDFD96" transform="translate(275,327)"/>
<path d="M0 0 C1.06412109 -0.01611328 2.12824219 -0.03222656 3.22460938 -0.04882812 C9.6467664 -0.05279487 14.46262847 0.63160362 20.3125 3.3125 C20.3125 3.6425 20.3125 3.9725 20.3125 4.3125 C7.7725 4.3125 -4.7675 4.3125 -17.6875 4.3125 C-11.27856236 0.03987491 -7.60450818 -0.022619 0 0 Z " fill="#959729" transform="translate(756.6875,177.6875)"/>
<path d="M0 0 C0.33 0 0.66 0 1 0 C1.33 32.67 1.66 65.34 2 99 C3.485 98.01 3.485 98.01 5 97 C5.99 97.33 6.98 97.66 8 98 C5.36 99.65 2.72 101.3 0 103 C0 69.01 0 35.02 0 0 Z " fill="#7AC655" transform="translate(276,741)"/>
<path d="M0 0 C0.33 0.66 0.66 1.32 1 2 C-1.42819825 8.43104628 -6.06758073 13.84780561 -10.27026367 19.19604492 C-13.20336206 22.932702 -15.90277762 26.73898443 -18.484375 30.72265625 C-21.50173875 35.25647859 -24.77107726 39.61554907 -28 44 C-28.66 43.67 -29.32 43.34 -30 43 C-23.67055461 33.68975368 -17.23730533 24.47031822 -10.59301758 15.38134766 C-6.92217469 10.34311723 -3.42125025 5.21082731 0 0 Z " fill="#6A6221" transform="translate(792,187)"/>
<path d="M0 0 C16.52312568 1.06240064 16.52312568 1.06240064 21 3 C22.5625 5.625 22.5625 5.625 23 8 C23.69867187 7.98839844 24.39734375 7.97679687 25.1171875 7.96484375 C26.02726563 7.95582031 26.93734375 7.94679687 27.875 7.9375 C29.23238281 7.92009766 29.23238281 7.92009766 30.6171875 7.90234375 C33 8 33 8 35 9 C35 9.66 35 10.32 35 11 C35.66 11 36.32 11 37 11 C35.75023244 14.65316671 35.32901247 15.78065836 32 18 C32.020625 17.071875 32.04125 16.14375 32.0625 15.1875 C32.15769604 11.97713989 32.15769604 11.97713989 31 9 C27.7 9 24.4 9 21 9 C21 8.34 21 7.68 21 7 C14.03359344 4.86927695 7.03645577 2.88619822 0 1 C0 0.67 0 0.34 0 0 Z " fill="#4F5219" transform="translate(760,173)"/>
<path d="M0 0 C0.33 0 0.66 0 1 0 C1 17.82 1 35.64 1 54 C0.34 54 -0.32 54 -1 54 C-1.19635974 50.54210946 -1.38058252 47.08367803 -1.5625 43.625 C-1.64661133 42.14773438 -1.64661133 42.14773438 -1.73242188 40.640625 C-1.78076172 39.69960938 -1.82910156 38.75859375 -1.87890625 37.7890625 C-1.9260376 36.91975098 -1.97316895 36.05043945 -2.02172852 35.15478516 C-2 33 -2 33 -1 31 C-0.92674898 29.0989529 -0.91641981 27.19530978 -0.9375 25.29296875 C-0.94523437 24.14892578 -0.95296875 23.00488281 -0.9609375 21.82617188 C-0.98685338 19.41210802 -1.01289382 16.9980455 -1.0390625 14.58398438 C-1.04679687 13.43607422 -1.05453125 12.28816406 -1.0625 11.10546875 C-1.07410156 10.05512451 -1.08570313 9.00478027 -1.09765625 7.92260742 C-1.00540143 5.16165132 -0.62865283 2.68445895 0 0 Z " fill="#7FBF60" transform="translate(330,680)"/>
<path d="M0 0 C3.12981912 0.33533776 4.00061159 1.00066401 6.1875 3.375 C9.44434181 8.09180538 9.41742635 12.45696635 9 18 C8 21.0625 8 21.0625 7 23 C6.67 23 6.34 23 6 23 C5.90203125 22.31035156 5.8040625 21.62070312 5.703125 20.91015625 C4.77687044 15.08912541 3.4597836 10.14643167 0.8046875 4.875 C0 3 0 3 0 0 Z " fill="#D7E575" transform="translate(583,390)"/>
<path d="M0 0 C9.33501962 3.97006582 16.5739383 14.18848268 21 23 C21.68359375 25.82421875 21.68359375 25.82421875 22 28 C20.25 27.875 20.25 27.875 18 27 C15.8125 24 15.8125 24 14 21 C13.67 20.67 13.34 20.34 13 20 C12.93941406 18.95585937 12.87882813 17.91171875 12.81640625 16.8359375 C11.75824174 11.86408318 9.60884788 9.93970265 5.9375 6.625 C3.94827777 4.75996304 1.97081254 2.88460807 0 1 C0 0.67 0 0.34 0 0 Z " fill="#BED56C" transform="translate(620,356)"/>
<path d="M0 0 C6.93 0 13.86 0 21 0 C21.66 1.65 22.32 3.3 23 5 C21.8828125 7.23828125 21.8828125 7.23828125 20.125 9.3125 C19.55007813 10.00988281 18.97515625 10.70726562 18.3828125 11.42578125 C17.92648437 11.94527344 17.47015625 12.46476563 17 13 C17 10 17 10 18 7 C16.68 6.34 15.36 5.68 14 5 C14.33 4.01 14.66 3.02 15 2 C10.05 1.67 5.1 1.34 0 1 C0 0.67 0 0.34 0 0 Z " fill="#F1EF7F" transform="translate(770,182)"/>
<path d="M0 0 C0.33 0 0.66 0 1 0 C1.33745354 2.39531756 1.6700829 4.79114268 2 7.1875 C2.09539062 7.86103516 2.19078125 8.53457031 2.2890625 9.22851562 C2.78324613 12.84664577 3.11346131 16.34796401 3 20 C3.99 20.33 4.98 20.66 6 21 C5.01 21.33 4.02 21.66 3 22 C-0.57757693 17.80559946 -4 13.69511947 -4 8 C-3.01 8 -2.02 8 -1 8 C-0.67 5.36 -0.34 2.72 0 0 Z " fill="#C8DA6D" transform="translate(391,574)"/>
<path d="M0 0 C19.47 0 38.94 0 59 0 C59 0.33 59 0.66 59 1 C51.22209355 1.14279708 43.44417943 1.28517039 35.66625977 1.42724609 C33.01912255 1.47565052 30.37198712 1.52415272 27.72485352 1.57275391 C23.92464656 1.64250859 20.12443337 1.7119141 16.32421875 1.78125 C14.54285774 1.81406067 14.54285774 1.81406067 12.72550964 1.84753418 C11.62459488 1.86755493 10.52368011 1.88757568 9.3894043 1.90820312 C7.93379341 1.93485046 7.93379341 1.93485046 6.44877625 1.96203613 C4.63269165 1.99019126 2.81630283 2 1 2 C0.67 1.34 0.34 0.68 0 0 Z " fill="#1C2C11" transform="translate(620,354)"/>
<path d="M0 0 C1.90265625 0.00966797 1.90265625 0.00966797 3.84375 0.01953125 C7.1503637 0.17143765 10.25387592 0.56131866 13.5 1.1875 C13.5 1.5175 13.5 1.8475 13.5 2.1875 C12.63834229 2.20937378 12.63834229 2.20937378 11.75927734 2.23168945 C9.13054304 2.30663725 6.50301448 2.40313994 3.875 2.5 C2.51955078 2.53383789 2.51955078 2.53383789 1.13671875 2.56835938 C-4.1955335 2.7824279 -7.78330484 3.47540028 -12.5 6.1875 C-14.875 5.875 -14.875 5.875 -16.5 5.1875 C-12.26804924 0.01511574 -6.2645677 -0.07003074 0 0 Z " fill="#8C9327" transform="translate(751.5,175.8125)"/>
<path d="M0 0 C17.82 0 35.64 0 54 0 C53.34 1.65 52.68 3.3 52 5 C51.505 3.02 51.505 3.02 51 1 C34.17 1 17.34 1 0 1 C0 0.67 0 0.34 0 0 Z " fill="#E7ED92" transform="translate(653,305)"/>
<path d="M0 0 C9.41832107 2.88315951 16.66419291 8.30252874 23.625 15.125 C24.40641357 15.87885986 24.40641357 15.87885986 25.20361328 16.64794922 C28.13176569 19.62505102 29.67623913 21.79110866 30 26 C29.525625 25.360625 29.05125 24.72125 28.5625 24.0625 C21.88233797 16.07889172 14.87533217 10.31574869 6.0390625 4.9453125 C3.6487879 3.41529097 1.84808906 2.11400115 0 0 Z " fill="#B7D06B" transform="translate(553,366)"/>
<path d="M0 0 C1.73056641 -0.00386719 1.73056641 -0.00386719 3.49609375 -0.0078125 C6.5625 0.125 6.5625 0.125 9.5625 1.125 C9.5625 1.785 9.5625 2.445 9.5625 3.125 C2.6325 3.125 -4.2975 3.125 -11.4375 3.125 C-7.1618318 0.27455453 -5.13646043 -0.01145253 0 0 Z " fill="#D5D33D" transform="translate(754.4375,178.875)"/>
<path d="M0 0 C0.33 0 0.66 0 1 0 C1.33 10.89 1.66 21.78 2 33 C2.99 32.34 3.98 31.68 5 31 C5.99 31.33 6.98 31.66 8 32 C4.04 34.475 4.04 34.475 0 37 C0 24.79 0 12.58 0 0 Z " fill="#66B753" transform="translate(276,807)"/>
<path d="M0 0 C0.66 0.33 1.32 0.66 2 1 C-0.21466707 3.96066019 -1.57026067 5.74212812 -5.28759766 6.41259766 C-7.97731306 6.49163195 -10.6245353 6.43597541 -13.3125 6.3125 C-14.24384766 6.28994141 -15.17519531 6.26738281 -16.13476562 6.24414062 C-18.4248396 6.18542078 -20.71157875 6.10336858 -23 6 C-19.93878231 4.37543458 -17.98429601 3.76760731 -14.5 3.875 C-13.7471875 3.89304688 -12.994375 3.91109375 -12.21875 3.9296875 C-11.4865625 3.95289063 -10.754375 3.97609375 -10 4 C-6.13676051 4.45137102 -6.13676051 4.45137102 -4.4375 2.5625 C-3.963125 2.046875 -3.48875 1.53125 -3 1 C-2.01 0.67 -1.02 0.34 0 0 Z " fill="#494B17" transform="translate(721,176)"/>
<path d="M0 0 C1.0209375 0.433125 1.0209375 0.433125 2.0625 0.875 C5.06182976 2.09361563 5.06182976 2.09361563 8.5625 2.875 C12.1436244 4.04700435 13.70430731 5.06151336 16 8 C16 8.66 16 9.32 16 10 C13.69 10 11.38 10 9 10 C9.66 9.34 10.32 8.68 11 8 C10.28972656 7.59007812 9.57945312 7.18015625 8.84765625 6.7578125 C7.92855469 6.21898437 7.00945313 5.68015625 6.0625 5.125 C5.14597656 4.59132813 4.22945312 4.05765625 3.28515625 3.5078125 C1 2 1 2 0 0 Z " fill="#1C9F60" transform="translate(657,755)"/>
<path d="M0 0 C5.875 3.625 5.875 3.625 7 7 C3.25 10 3.25 10 1 10 C0.896875 9.401875 0.79375 8.80375 0.6875 8.1875 C-0.08876455 5.71756736 -1.07088921 4.67748765 -3 3 C-2.01 3 -1.02 3 0 3 C0 2.01 0 1.02 0 0 Z " fill="#6CB357" transform="translate(451,708)"/>
<path d="M0 0 C8.7953516 0.19388551 15.95735526 2.53488597 24 6 C20.0242318 7.55272539 17.09623788 6.39595196 13.125 5.1875 C11.33449219 4.65189453 11.33449219 4.65189453 9.5078125 4.10546875 C6.32665924 3.10294495 3.15978886 2.0677574 0 1 C0 0.67 0 0.34 0 0 Z " fill="#C3D369" transform="translate(526,358)"/>
<path d="M0 0 C0.33 0.99 0.66 1.98 1 3 C-0.34478654 5.11536113 -1.69083911 6.9921032 -3.25 8.9375 C-4.05953125 9.97777344 -4.8690625 11.01804688 -5.703125 12.08984375 C-6.46109375 13.05019531 -7.2190625 14.01054687 -8 15 C-9.00453645 16.32991891 -10.00672052 17.66165264 -11 19 C-11.66 18.67 -12.32 18.34 -13 18 C-11.21180836 15.37261708 -9.41885773 12.74851693 -7.625 10.125 C-7.11710938 9.37863281 -6.60921875 8.63226563 -6.0859375 7.86328125 C-5.59609375 7.14785156 -5.10625 6.43242187 -4.6015625 5.6953125 C-4.15119629 5.03547363 -3.70083008 4.37563477 -3.23681641 3.69580078 C-2 2 -2 2 0 0 Z " fill="#3C3B16" transform="translate(775,212)"/>
<path d="M0 0 C7.75 -0.125 7.75 -0.125 10 1 C10 1.66 10 2.32 10 3 C10.66 3 11.32 3 12 3 C10.75023244 6.65316671 10.32901247 7.78065836 7 10 C7.020625 9.071875 7.04125 8.14375 7.0625 7.1875 C7.15769604 3.97713989 7.15769604 3.97713989 6 1 C4.02 1 2.04 1 0 1 C0 0.67 0 0.34 0 0 Z " fill="#4A4617" transform="translate(785,181)"/>
<path d="M0 0 C0.79277344 0.05671875 1.58554687 0.1134375 2.40234375 0.171875 C4.35231735 0.31283695 6.30128671 0.4675712 8.25 0.625 C8.25 0.955 8.25 1.285 8.25 1.625 C-3.135 2.615 -3.135 2.615 -14.75 3.625 C-10.12765927 -0.99734073 -6.17235157 -0.51180361 0 0 Z " fill="#494F17" transform="translate(748.75,170.375)"/>
<path d="M0 0 C2.50298434 2.93828597 3.46930939 5.17902761 4 9 C2.68 8.67 1.36 8.34 0 8 C-1.125 2.25 -1.125 2.25 0 0 Z " fill="#B8D461" transform="translate(638,375)"/>
<path d="M0 0 C6.27 0 12.54 0 19 0 C18.34 1.65 17.68 3.3 17 5 C16.67 3.68 16.34 2.36 16 1 C10.72 1 5.44 1 0 1 C0 0.67 0 0.34 0 0 Z " fill="#CFD879" transform="translate(688,305)"/>
<path d="M0 0 C1.24523437 0.02707031 2.49046875 0.05414063 3.7734375 0.08203125 C4.71445312 0.11683594 5.65546875 0.15164062 6.625 0.1875 C6.625 0.5175 6.625 0.8475 6.625 1.1875 C5.88894531 1.23648438 5.15289063 1.28546875 4.39453125 1.3359375 C2.93080078 1.44808594 2.93080078 1.44808594 1.4375 1.5625 C0.47457031 1.63210937 -0.48835937 1.70171875 -1.48046875 1.7734375 C-4.39248463 2.19000117 -6.66910849 3.07548979 -9.375 4.1875 C-11.6875 3.8125 -11.6875 3.8125 -13.375 3.1875 C-8.70450485 0.4498713 -5.38700281 -0.15246234 0 0 Z " fill="#ABB02D" transform="translate(752.375,177.8125)"/>
<path d="M0 0 C0.99 0.99 1.98 1.98 3 3 C2.9375 5.5 2.9375 5.5 2 8 C0.68 8.99 -0.64 9.98 -2 11 C-1.34 7.37 -0.68 3.74 0 0 Z " fill="#3D3B18" transform="translate(797,186)"/>
<path d="M0 0 C2.64 1.98 5.28 3.96 8 6 C7.34 6.66 6.68 7.32 6 8 C3.5625 6.8125 3.5625 6.8125 1 5 C0.1875 2.3125 0.1875 2.3125 0 0 Z " fill="#309B54" transform="translate(659,751)"/>
<path d="M0 0 C0.66 0.33 1.32 0.66 2 1 C0.43358249 5.30764815 -1.68336156 9.06171464 -4 13 C-5 10 -5 10 -4.00390625 7.51953125 C-3.52824219 6.62621094 -3.05257812 5.73289062 -2.5625 4.8125 C-2.08941406 3.91144531 -1.61632812 3.01039063 -1.12890625 2.08203125 C-0.75636719 1.39496094 -0.38382813 0.70789063 0 0 Z " fill="#6FB260" transform="translate(636,487)"/>
<path d="M0 0 C1.65 0.99 3.3 1.98 5 3 C4.67 4.65 4.34 6.3 4 8 C2 6.8125 2 6.8125 0 5 C-0.25 2.3125 -0.25 2.3125 0 0 Z " fill="#C4E063" transform="translate(633,371)"/>
<path d="M0 0 C1.32 0.33 2.64 0.66 4 1 C3.34 3.31 2.68 5.62 2 8 C1.34 7.67 0.68 7.34 0 7 C0 4.69 0 2.38 0 0 Z " fill="#F1F29D" transform="translate(386,415)"/>
<path d="M0 0 C0 0.66 0 1.32 0 2 C-1.6396875 2.2165625 -1.6396875 2.2165625 -3.3125 2.4375 C-6.93122987 2.88288104 -6.93122987 2.88288104 -10 4 C-10 3.34 -10 2.68 -10 2 C-6.3558226 -0.4294516 -4.28758728 -0.16179575 0 0 Z " fill="#3A3E14" transform="translate(747,168)"/>
<path d="M0 0 C0.66 0 1.32 0 2 0 C0.79157144 4.43090471 -0.51668565 6.98112756 -4 10 C-3.43697042 6.05879291 -2.3208055 3.2491277 0 0 Z " fill="#6EB15F" transform="translate(628,501)"/>
<path d="M0 0 C1.45922693 0.11409593 2.91740598 0.24165544 4.375 0.375 C5.59316406 0.47941406 5.59316406 0.47941406 6.8359375 0.5859375 C9 1 9 1 11 3 C8.36 3 5.72 3 3 3 C3 2.34 3 1.68 3 1 C2.01 0.67 1.02 0.34 0 0 Z " fill="#B4B433" transform="translate(761,179)"/>
<path d="M0 0 C1.9375 0.3125 1.9375 0.3125 4 1 C4.33 1.99 4.66 2.98 5 4 C3.68 4.33 2.36 4.66 1 5 C0.67 3.35 0.34 1.7 0 0 Z " fill="#CBE470" transform="translate(583,390)"/>
<path d="M0 0 C1.3921875 0.3403125 1.3921875 0.3403125 2.8125 0.6875 C2.4825 1.3475 2.1525 2.0075 1.8125 2.6875 C-0.8275 2.6875 -3.4675 2.6875 -6.1875 2.6875 C-4.14987265 -0.14253799 -3.59070275 -0.35202968 0 0 Z " fill="#585D1E" transform="translate(726.1875,178.3125)"/>
</svg>
